
<svg version="1.1" xmlns="http://www.w3.org/2000/svg" width="512" height="512">
<rect width="100%" height="100%" fill="#e4fbca"></rect>
<path d="M0 0 C0.87930176 0.00161133 1.75860352 0.00322266 2.66455078 0.00488281 C12.04628784 0.18160251 19.72509185 2.51167931 27.1875 8.375 C27.909375 9.220625 28.63125 10.06625 29.375 10.9375 C32.79736413 13.90354891 35.47483359 14.19122318 39.8125 14.4375 C54.22467587 15.79760301 65.15568331 21.28092815 74.8125 32.3125 C82.01970679 41.59372313 87.25109473 52.34563807 91.1875 63.375 C91.99832031 63.08625 92.80914062 62.7975 93.64453125 62.5 C100.79553963 60.10245586 107.636693 57.82753868 115.1875 59.375 C117.1628418 60.69213867 117.1628418 60.69213867 119.01171875 62.41796875 C119.69709717 63.0524292 120.38247559 63.68688965 121.08862305 64.34057617 C125.18167244 68.30793462 129.19611238 72.34471809 133.1875 76.4140625 C137.12805413 80.400795 141.16237419 84.19127187 145.42578125 87.83203125 C147.1875 89.375 147.1875 89.375 148.54406738 90.94363403 C150.57838733 92.71544768 151.57731604 92.76823184 154.24414062 92.81982422 C155.46055237 92.8553389 155.46055237 92.8553389 156.70153809 92.89157104 C158.00943298 92.91043869 158.00943298 92.91043869 159.34375 92.9296875 C161.18881834 92.98776716 163.03387004 93.04637713 164.87890625 93.10546875 C167.78880615 93.1817472 170.69856137 93.25022001 173.60888672 93.30810547 C176.41737149 93.36937632 179.22371042 93.46033308 182.03125 93.5546875 C183.3391449 93.56748245 183.3391449 93.56748245 184.67346191 93.58053589 C185.48440308 93.61051666 186.29534424 93.64049744 187.13085938 93.67138672 C187.84350952 93.68676483 188.55615967 93.70214294 189.29040527 93.71798706 C192.30332712 94.76143977 192.8029868 96.53807778 194.1875 99.375 C194.95947245 102.44913458 195.39329143 105.55403434 195.83180237 108.690979 C195.9727569 109.63484931 196.11371142 110.57871961 196.2589373 111.55119205 C196.72947362 114.72049691 197.18412279 117.89187723 197.63891602 121.06347656 C197.97372622 123.34090487 198.3095161 125.61818934 198.64620972 127.89533997 C199.5641277 134.12262612 200.46830537 140.35184128 201.37029004 146.58145237 C202.23625878 152.54673658 203.11274947 158.51046723 203.9891529 164.4742249 C205.74573505 176.4296487 207.49256845 188.38647586 209.2331543 200.34423828 C210.87997808 211.65768324 212.53015017 222.97062806 214.1862793 234.28271484 C214.33585197 235.30436962 214.33585197 235.30436962 214.48844631 236.34666389 C215.19196914 241.15171121 215.89576232 245.95671891 216.59960938 250.76171875 C217.30588692 255.58351409 218.01213121 260.4053143 218.71830316 265.22712511 C218.92012076 266.60514772 219.12194636 267.98316916 219.32377999 269.36118942 C220.73688583 279.00955098 222.14702795 288.65834175 223.55529593 298.30741054 C227.68789513 326.61950759 231.85387626 354.92617676 236.09304692 383.22253019 C236.52191286 386.08593438 236.95033703 388.94940459 237.37873197 391.81287928 C237.90352751 395.32065031 238.42852928 398.82839046 238.95359802 402.33612061 C239.05612533 403.02107116 239.15865264 403.70602172 239.26428684 404.41172835 C240.56967215 413.13093622 241.88110166 421.84920784 243.19779348 430.56671524 C243.9402797 435.4898659 244.67813791 440.41370245 245.41485143 445.33771992 C245.75623937 447.61207101 246.09970961 449.88611067 246.44542384 452.15980816 C246.91681918 455.26109956 247.38105081 458.36338408 247.84361267 461.46600342 C247.98143758 462.36045772 248.11926249 463.25491202 248.26126391 464.17647099 C249.016847 469.30454066 249.31629459 474.19106181 249.1875 479.375 C246.51380232 480.04342442 243.84010296 480.71184209 241.16639709 481.38023376 C238.72076341 481.99167079 236.27515702 482.60321702 233.82957458 483.21485901 C227.55698371 484.78353821 221.28414664 486.35120875 215.01030636 487.91488457 C211.310101 488.83716533 207.61008354 489.76019817 203.91015625 490.68359375 C203.15428034 490.87222866 202.39840443 491.06086357 201.61962318 491.25521469 C191.37435824 493.81339166 181.13698177 496.40092821 170.90615845 499.01625061 C165.47989848 500.40333856 160.05149443 501.78194782 154.62260628 503.15870953 C150.16155303 504.29086679 145.7035878 505.43430855 141.24750423 506.58586025 C138.45359543 507.30487351 135.6569699 508.01283541 132.85951424 508.71790886 C130.95958493 509.20025118 129.06301347 509.69576142 127.16661072 510.19178772 C126.01036697 510.48105637 124.85412323 510.77032501 123.6628418 511.06835938 C122.17701851 511.44897522 122.17701851 511.44897522 120.66117859 511.83728027 C111.24105721 513.29549955 102.30470424 511.97305584 92.9987793 510.30908203 C91.71359437 510.08698374 90.42840944 509.86488544 89.10427952 509.6360569 C85.5672833 509.02458942 82.03238429 508.4016957 78.49773312 507.77683544 C74.67902259 507.1039151 70.85841646 506.44192258 67.0380249 505.77862549 C60.43583221 504.63087626 53.83482225 503.47652575 47.23458862 502.31756592 C37.70044423 500.64347722 28.16458876 498.97931766 18.62819684 497.31808496 C14.1885716 496.54469585 9.74900871 495.77094916 5.3094635 494.99710083 C4.42115316 494.84226239 3.53284281 494.68742394 2.61761397 494.52789342 C-3.75741131 493.41645402 -10.13208647 492.30302027 -16.50660706 491.18869019 C-41.25286826 486.86314673 -66.00375801 482.56506823 -90.75849557 478.28830767 C-95.15029498 477.52948602 -99.54202537 476.77026513 -103.9337616 476.01107788 C-122.91038969 472.73077681 -122.91038969 472.73077681 -141.88740861 469.45273781 C-149.80231091 468.08601506 -157.7169659 466.7178793 -165.63111246 465.3467865 C-169.24221798 464.72123039 -172.85345701 464.09647273 -176.465065 463.47382355 C-180.36980294 462.80063586 -184.27391951 462.12389197 -188.17797852 461.44677734 C-189.32506948 461.24961184 -190.47216043 461.05244633 -191.65401173 460.84930611 C-192.69446486 460.66824255 -193.734918 460.48717899 -194.80690002 460.30062866 C-195.70767053 460.14488562 -196.60844103 459.98914257 -197.53650761 459.82868004 C-199.8125 459.375 -199.8125 459.375 -202.8125 458.375 C-202.27550581 444.33623824 -200.42256295 430.48897937 -198.59766185 416.56978846 C-198.14457138 413.10476836 -197.69766894 409.63894909 -197.24993896 406.17323303 C-196.37483661 399.40698392 -195.49411708 392.64147773 -194.61138172 385.87622066 C-193.58195447 377.98523294 -192.55798773 370.09353944 -191.53416108 362.20182346 C-189.70680024 348.11802182 -187.87422888 334.03490308 -186.03881836 319.95214844 C-184.2604683 306.30719196 -182.48629734 292.66170029 -180.71655273 279.015625 C-178.7851697 264.12324555 -176.85163394 249.23114877 -174.914226 234.33955181 C-174.70750049 232.75057724 -174.50077523 231.16160265 -174.29405022 229.57262802 C-174.19235455 228.79098352 -174.09065888 228.00933902 -173.98588153 227.20400832 C-173.27132427 221.71085194 -172.55822494 216.21750744 -171.845644 210.72409439 C-170.97709577 204.02883874 -170.10599229 197.33392115 -169.23170728 190.63941212 C-168.78620595 187.22773278 -168.34177291 183.81592386 -167.90034294 180.40371513 C-167.42040379 176.69857907 -166.93620846 172.99402298 -166.45094299 169.2895813 C-166.31348571 168.22070336 -166.17602842 167.15182543 -166.03440577 166.05055726 C-163.50347652 146.85944993 -163.50347652 146.85944993 -159.8125 142.375 C-152.97734587 137.91316328 -144.06510865 136.28350859 -136.28125 134.16796875 C-133.05973933 133.27084509 -129.83919508 132.37035373 -126.61914062 131.46801758 C-124.40629769 130.86203453 -122.18728618 130.27816208 -119.96289062 129.71606445 C-108.04883118 127.28202385 -108.04883118 127.28202385 -98.46591187 120.61199951 C-96.36786539 116.03552095 -96.14402866 111.34142331 -95.8125 106.375 C-95.06298828 103.44018555 -95.06298828 103.44018555 -94.20703125 100.921875 C-93.95066895 100.12869873 -93.69430664 99.33552246 -93.43017578 98.51831055 C-93.16446777 97.72851807 -92.89875977 96.93872559 -92.625 96.125 C-92.33093262 95.25077393 -92.03686523 94.37654785 -91.73388672 93.47583008 C-79.86297866 59.13520892 -59.32530119 23.11011439 -25.94921875 5.8984375 C-17.29602901 1.80522742 -9.52841024 -0.01820831 0 0 Z M-43.55859375 42.4921875 C-60.7548896 63.22468317 -74.81233442 89.76781047 -79.8125 116.375 C-76.47351656 115.7353094 -73.14353287 115.05476164 -69.8125 114.375 C-68.58740723 114.1387793 -67.36231445 113.90255859 -66.10009766 113.65917969 C-49.31160569 110.83532198 -49.31160569 110.83532198 -35.76660156 101.8125 C-32.98904335 95.90843401 -32.10559126 89.68720748 -31.28027344 83.26123047 C-30.60945065 79.12215581 -29.16460592 75.58089197 -27.375 71.8125 C-27.08391357 71.18279297 -26.79282715 70.55308594 -26.49291992 69.90429688 C-25.62038022 68.05024081 -24.71965883 66.21232709 -23.8125 64.375 C-23.51263184 63.74835449 -23.21276367 63.12170898 -22.90380859 62.47607422 C-14.74823296 45.53956151 -3.32086655 30.85202524 13.1875 21.375 C-5.04154018 6.40114557 -31.89793224 28.9729399 -43.55859375 42.4921875 Z M44.1875 33.375 C44.29707031 33.96023437 44.40664063 34.54546875 44.51953125 35.1484375 C45.08716044 38.22194189 45.63841674 41.29812491 46.1875 44.375 C46.31060547 45.05546387 46.43371094 45.73592773 46.56054688 46.43701172 C48.35557099 56.42350781 49.71427191 66.22507343 50.1875 76.375 C54.19517217 75.40406911 58.19231956 74.3960426 62.1875 73.375 C63.17363281 73.13523438 64.15976562 72.89546875 65.17578125 72.6484375 C66.06652344 72.41382813 66.95726562 72.17921875 67.875 71.9375 C68.68324219 71.73253906 69.49148438 71.52757812 70.32421875 71.31640625 C72.32070657 70.53720828 72.32070657 70.53720828 73.08203125 68.62890625 C73.52321001 59.2007527 65.2365511 49.15857284 59.46484375 42.33984375 C55.6117572 38.2058944 51.50886528 35.34451681 46.1875 33.375 C45.5275 33.375 44.8675 33.375 44.1875 33.375 Z M21.171875 36.37890625 C18.82232497 38.01784062 16.49041587 39.67099681 14.1875 41.375 C13.58421875 41.80941406 12.9809375 42.24382813 12.359375 42.69140625 C-2.72982885 54.50188123 -12.87082751 76.27162822 -17.8125 94.375 C-17.8125 95.365 -17.8125 96.355 -17.8125 97.375 C-6.89346243 94.87097875 3.74734909 91.5124814 14.4375 88.1875 C16.26162696 87.62275029 18.08584505 87.05829489 19.91015625 86.49414062 C24.33699496 85.12448246 28.7625834 83.75085458 33.1875 82.375 C33.33538783 74.77603042 33.06719892 67.45456226 31.9375 59.9375 C31.73833984 58.58833496 31.73833984 58.58833496 31.53515625 57.21191406 C29.86686189 46.50604568 29.86686189 46.50604568 26.1875 36.375 C23.30322992 35.02134954 23.30322992 35.02134954 21.171875 36.37890625 Z " fill="#95BF47" transform="translate(232.8125,-0.375)"/>
<path d="M0 0 C5.42067509 1.08413502 6.33371168 1.85905063 10.01953125 5.6640625 C10.48179611 6.13435883 10.94406097 6.60465515 11.42033386 7.08920288 C12.8941784 8.59193477 14.35376651 10.10760819 15.8125 11.625 C17.73131291 13.60063571 19.65571925 15.57074035 21.58203125 17.5390625 C22.50193848 18.47911133 23.4218457 19.41916016 24.36962891 20.38769531 C27.2571507 23.25538449 30.24183255 25.95134396 33.3503418 28.57568359 C35 30 35 30 36.3495636 31.56121826 C38.38894586 33.33906681 39.38265145 33.39309324 42.05664062 33.44482422 C42.86758179 33.46850067 43.67852295 33.49217712 44.51403809 33.51657104 C45.82193298 33.53543869 45.82193298 33.53543869 47.15625 33.5546875 C49.00131834 33.61276716 50.84637004 33.67137713 52.69140625 33.73046875 C55.60130615 33.8067472 58.51106137 33.87522001 61.42138672 33.93310547 C64.22987149 33.99437632 67.03621042 34.08533308 69.84375 34.1796875 C71.1516449 34.19248245 71.1516449 34.19248245 72.48596191 34.20553589 C73.29690308 34.23551666 74.10784424 34.26549744 74.94335938 34.29638672 C75.65600952 34.31176483 76.36865967 34.32714294 77.10290527 34.34298706 C80.11582712 35.38643977 80.6154868 37.16307778 82 40 C82.77197245 43.07413458 83.20579143 46.17903434 83.64430237 49.315979 C83.7852569 50.25984931 83.92621142 51.20371961 84.0714373 52.17619205 C84.54197362 55.34549691 84.99662279 58.51687723 85.45141602 61.68847656 C85.78622622 63.96590487 86.1220161 66.24318934 86.45870972 68.52033997 C87.3766277 74.74762612 88.28080537 80.97684128 89.18279004 87.20645237 C90.04875878 93.17173658 90.92524947 99.13546723 91.8016529 105.0992249 C93.55823505 117.0546487 95.30506845 129.01147586 97.0456543 140.96923828 C98.69247808 152.28268324 100.34265017 163.59562806 101.9987793 174.90771484 C102.09849441 175.58881803 102.19820953 176.26992122 102.30094631 176.97166389 C103.00446914 181.77671121 103.70826232 186.58171891 104.41210938 191.38671875 C105.11838692 196.20851409 105.82463121 201.0303143 106.53080316 205.85212511 C106.73262076 207.23014772 106.93444636 208.60816916 107.13627999 209.98618942 C108.54938583 219.63455098 109.95952795 229.28334175 111.36779593 238.93241054 C115.50039513 267.24450759 119.66637626 295.55117676 123.90554692 323.84753019 C124.33441286 326.71093438 124.76283703 329.57440459 125.19123197 332.43787928 C125.71602751 335.94565031 126.24102928 339.45339046 126.76609802 342.96112061 C126.86862533 343.64607116 126.97115264 344.33102172 127.07678684 345.03672835 C128.38217215 353.75593622 129.69360166 362.47420784 131.01029348 371.19171524 C131.7527797 376.1148659 132.49063791 381.03870245 133.22735143 385.96271992 C133.56873937 388.23707101 133.91220961 390.51111067 134.25792384 392.78480816 C134.72931918 395.88609956 135.19355081 398.98838408 135.65611267 402.09100342 C135.79393758 402.98545772 135.93176249 403.87991202 136.07376391 404.80147099 C136.829347 409.92954066 137.12879459 414.81606181 137 420 C134.32633104 420.66841724 131.65266132 421.33683141 128.97898865 422.00523376 C126.53306407 422.61672791 124.0871519 423.2282717 121.64125061 423.83985901 C115.37187307 425.40744481 109.10238284 426.97457493 102.83243656 428.53988457 C99.13691819 429.46250434 95.44148542 430.38546664 91.74609375 431.30859375 C90.99094671 431.49722866 90.23579967 431.68586357 89.45776939 431.88021469 C79.15649436 434.45409775 68.85871637 437.0415219 58.56393433 439.64125061 C53.08474139 441.02488841 47.60459254 442.40472225 42.12422752 443.78370953 C37.60404268 444.92147283 33.08519732 446.06438058 28.56721592 447.21086025 C25.74666119 447.92527379 22.92488629 448.63476845 20.10275078 449.34290886 C18.16725625 449.83016201 16.23326895 450.32339003 14.29933167 450.81678772 C13.14263474 451.10605637 11.98593781 451.39532501 10.79418945 451.69335938 C9.28838066 452.07397522 9.28838066 452.07397522 7.75215149 452.46228027 C5 453 5 453 0 453 C0 303.51 0 154.02 0 0 Z " fill="#5E8E3E" transform="translate(345,59)"/>
<path d="M0 0 C-0.62397902 5.88418922 -1.71653661 11.46014409 -3.1875 17.1875 C-3.4045459 18.044646 -3.6215918 18.90179199 -3.84521484 19.78491211 C-6.16183859 28.82269582 -8.74984954 37.78073148 -11.34960938 46.74023438 C-12.61767352 51.14609087 -13.81742652 55.57053616 -15 60 C-15.63164062 59.81824219 -16.26328125 59.63648438 -16.9140625 59.44921875 C-19.93474246 58.60046862 -22.965097 57.79639299 -26 57 C-27.04929687 56.71382812 -28.09859375 56.42765625 -29.1796875 56.1328125 C-44.59134607 52.32522627 -61.94694528 51.68716159 -76 60.125 C-80.57640532 63.83405668 -83.33182525 69.44912849 -84.41015625 75.1796875 C-84.70863564 81.85005296 -81.983515 87.56142522 -77.62280273 92.48413086 C-71.88625394 97.84267328 -64.70495491 101.88646133 -58.16162109 106.1862793 C-36.46299601 120.46294759 -16.92654908 135.98319198 -10.1875 162.3125 C-5.58036242 186.70636141 -10.24218627 211.51683294 -24.09375 232.11328125 C-34.77422165 246.10237727 -51.2226799 255.73872246 -68.59375 258.58984375 C-99.68413919 262.01162623 -127.37754684 255.28329266 -152.13671875 235.89453125 C-154.22968134 233.76646656 -154.58150185 232.90268508 -155 230 C-154.6262207 227.62841797 -154.6262207 227.62841797 -153.92578125 224.9921875 C-153.67199707 224.01314453 -153.41821289 223.03410156 -153.15673828 222.02539062 C-152.87813965 220.98576172 -152.59954102 219.94613281 -152.3125 218.875 C-151.75196978 216.71664781 -151.19339562 214.55778674 -150.63671875 212.3984375 C-150.35876465 211.32432617 -150.08081055 210.25021484 -149.79443359 209.14355469 C-148.64987358 204.61455814 -147.62121506 200.06360931 -146.625 195.5 C-146.45782471 194.7354248 -146.29064941 193.97084961 -146.1184082 193.18310547 C-145.74283715 191.45600332 -145.37093153 189.72810453 -145 188 C-140.49940453 189.62160183 -136.55285204 191.91597628 -132.4375 194.3125 C-125.81799075 198.09583444 -119.19322012 201.41781842 -112 204 C-111.32066406 204.24492187 -110.64132813 204.48984375 -109.94140625 204.7421875 C-101.55960336 207.2863522 -91.73724343 207.39049294 -83.875 203.34375 C-79.84914211 200.45855184 -77.56223961 196.68671882 -76 192 C-74.80402109 183.17397844 -77.00650438 176.30946131 -82 169 C-86.58957932 163.71696535 -91.8987141 159.71520497 -97.625 155.75 C-115.05532667 143.40091124 -131.61132181 130.20723975 -136.6328125 108.23046875 C-140.82490439 82.31269428 -136.07742236 56.8407923 -121.0234375 35.15234375 C-106.74346426 16.74767705 -88.1308336 5.44715129 -66 -1 C-65.27683594 -1.22300781 -64.55367188 -1.44601563 -63.80859375 -1.67578125 C-43.23052082 -7.49808698 -20.11420834 -6.87409795 0 0 Z " fill="#FEFEFE" transform="translate(269,164)"/>
</svg>
