<svg id="Layer_1" data-name="Layer 1" xmlns="http://www.w3.org/2000/svg" viewBox="0 0 792.55 316.66"><defs><style>.cls-1{fill:#00a6ce;}.cls-2{fill:#d1d3d4;}.cls-3{fill:#e6e7e8;}.cls-4{fill:none;stroke:#777;stroke-linecap:round;stroke-linejoin:round;stroke-width:1.98px;}.cls-5{fill:#777;}</style></defs><title>ACEH</title><path id="ID-AC" class="cls-1" d="M36.71,92.06l-.17.1-.71-1.09-1.25-1.34-1-.46-.59-.1L32.77,89l.11-.15,1-.2,2.06.13.69,1.08.34,1v.86ZM9.16,31l2.59,1.42.08.66.28.46,1,1,1.79,1.4.85.35,3.94,1,4,.27,1.91-.35,2.23-.88h.36l.9.48,1.52-.36,1.12.12,1.41.53.38.33.32.86.62.21,1-.2,3.93-1.52.47,0,.88.89,1.09,1.51L44,41.39l1.56,1.32,1.21.28.89,1.77.15,1.52.41,1,.44.59-.09.93.82-.1,1,.36.64.31,2.06,1.58.14,1.33-.36.86h0l-.4.14-.8-.15-.77.21-.06.32-.27.12-.56.12-.38-.09-.09.21.3.53,0,.38-.41.24.15.47-.47.68,0,1-.21.29-.24,1.33-1.21.65.06.38-.15.27-.56-.38-.18,0-.09.32.41.74-.12.35-1.48,1.18-.44.62.33.82.47.5v.32l.27.18,0,.74.74.35.21.88.56.41-.33.53.27.56,0,.44.65.44.27-.12.38.71-.24.79-2.37.65.09.18.59.12.5.5.06.74.62.65-.09,1-.62-.06-.18.12.21.26,0,.53.27.88v1.06l.92.24L49,78.49l.95.12,0,.26.24.29-.33.5-.06.38.15.65.5.5,0,.26-.62.21-.24,1.41.18,1,.41.56-.06.71.83.35.53,1.62-.61,2.79h0l-3.51-2H47l-.93.46L44,88.05l-1.65-2.3-.1-4-.32-2.17L41.3,77.8l-.2-.21h-.8L38.73,77l-.47-.22-.66-.63-1.24-1.73-.46-2-.47-.77-1.53-.52-1.58-2.52-1.23-2.32-1.4-.78L29.22,65l-.3-1.13-1.6-1.12-2.64-.15-1.33.22-.68-.14-.52-.3-1.68-1.64L18.61,58l-1.7-1.81-.76-.24-1.31-1-1-.44-1.17-1-2-2.36L7.89,48.42l-2.3-1.88L3.72,43.71,1.31,39l.34-.67-.06-.3L.42,36.18l.4-2.12L.26,32.78l.17-1.57h.86l2.17-1.4.4-.07,2.87.44L9.16,31Z"/><path id="ID-BA" class="cls-2" d="M352.57,279l-.52-.07-1.06-.59-.83-.67.13-.37.63-.57.28-.08h1l.28.16.62,1.15v.28Zm-19.22-12.44.39.18.33.57.33.1.67-.37,3.28.94,1.91.33,1.74-.17.67-.23,1.67-1.47.92-.42.34.08,4.56,1.7L352,269l1.27,1.64,1.3.7.14.36-.07.34-.3.41L353,273.56l-1.95,1-1,.33-.94.08-1.2.57-1,.94,0,.75-1.34.79.53.67.12-.38.22.71-.36.51-1.07.3-1-.12-.19-.34.8-.64.61-.26-.24-.45.28-.63-.35-.5-1.4-1.47-2.57-2.24-.72-.41-1.6-.62-1.42-.27-2.13.12-2.43-3.08-.27-1.87.13-.43Z"/><path id="ID-BB" class="cls-2" d="M202.1,179.06l-.64.18-.57-.17-1.69-1,.32-.77,1.15-.51,1.7.73.13.29-.4,1.22Zm16.28-8.41,4.36,1.21,3.09,2.51.52,1.76-1.52,2.63-.13,1.93-1.62.74-.46,1.13-1.6.37-.18-.29-.1-1.15-1.72-2-.37.14-.46.47.34.42-.07.76-.39.26-2.95.95-.56-.24-.57-3.51.56-1.65.06-2.3.36-.43,0-.95.27-1.94.28-.37.74-.11,1.05.07,1.1-.46Zm-30.13-13.12.82,1.33.49,1.4v1.81l.37,1.93.92,2.81.51,1.08.78,1,.73.69.5.21,4,.73,2.86,1.12-.68.39-1.05,1.2-1.27,3.27-.12.83.13.44.78.46.31-.07,1.19.55v1.23l-.41.43-3.43.07-1.3-2.08-2.82-1.27-2.34-.67-.91-.45-1.67-.17-.41-.3-.93-1.55L185,172.6V172l.65-1.5-.08-.89-.61-.52-.74-.21-.59-.74-.36-3.52-.15-.33-.78-.56-4.62-.52-1.11.33-1.27.11-3.55-.88-.26-.85.35-1.31.61-.45,1.88-.68,1.71-1.18.23-.36,0-.46-.24-.47-.9-.55.16-.91.83-.85,1.07-.68,2.1-.66.49.12.74,1.75.15,1.67.92.74,1.24.29.49,0-1.74-4.21.61-.32,2.47-.67.41.09,2,1.36.29.42-.27.83.14.57,1,1.56Z"/><path id="ID-BE" class="cls-2" d="M118.55,174.61l.21.59.85.54.14.71.88.53.13.28.44.15.3,1.19.4.64.62.14.47.44,1.15-.4,1,.22.63.58.29.74-.11,1.22.23.15-.2.5,1.67,1.52.63.1.25.25.79-.56.86,0,.9-.56.25.11,0,.34.29.47.27-.12.56.26.56-.25-.16.11.07.56.21.2.82-.32.79.09.21.45-.18.35,0,.83-.15.93,0,.14-.33.09-.32.72-.72.74-.17-.05-.36-.64-.53-.56-.53-.3-.16,0-.07,1.45-.49.31-.63.76-.12,1.14-1.33.47-.23.36-.47.18.67.2.4.4.17.4.89.51.85,1.08.68.39.76.2.61-.29.4.16.26.51.21.12,1.26.06.94-.14.29.24.4.05.5,1.37.46.67V200l1.91.31.49.56.73.44h.73l.57.21.4-.09.34.61.55.3,1-.36.56.18.31.65v.57l-.57.54-.26.52,1.09,1-.71.62.78,0,.64.5.3.42.18.88-.39.49.36-.09.62.29.4,0,.36.6-.08.33h0l-.08.05h0l-.11.11-.81-.05-.13.51-.51.4-.43.08-.57.53-.32.06-.18.53h0l-.8-.1-.53-.57-.47-.23-.85-.2-.3.2-.31-.13-.07-.24.22-.16-.26-.39-.51-.38-.32,0-.28.25-.4-.31-.05-.18.24-.34-1.59-1.74-3.14-2.08-2.64-1,.06-.25-.6-.82-1-.72-.14-.34-3.57-2.69-.77-.73-4.55-3.28-.18-.22,0-1.06.42-.11,0-.27-.87-1.73-.26-1.61-2.22-1.8-2-1.22-1.24-.49.06-.32-5.58-4-1.47-1.88.09-.24-.22-.51-.37-.26-.19-.73-.33-.22-1.2-1.78-1.2-2.9-3.21-1.8-1.13-1.59-.85-.8h0l1.61-1.11.42-.44,1.09-.44.74-.56.8-1h0v0h0l4.71,3-.33,2,.17.12.28-.48.44-.08.29.2.56-.16.12-.29.37,0,.44.69,1.46,1.57.4.16.2.36.33.08.48.48.69.2,1.34-.16.84.52.47.12h0Z"/><path id="ID-BT" class="cls-2" d="M199.17,231.93l-.6.25,0,1.12.61.33,0,.67.39.08.16.73.44.76h0l0,.15h0l-.18.61-2.91,0-.3-.36-1-.27-.1.06.3.16v.25l-.54,0-.21-.65-.33-.1-.67.64.44,1.4-.25.33-.62.09-.11,1,.56,1.24-.09,1.73.11.34h.16l.44.48.21,0,.55.66-.37.25,0,.27-.94.44-.08.71-.65.69.1.44-.18.18.16.76h0l-.49.19-1,0-.09-.28-.66,0-.06-.23-.37-.1,0-.43-.91-.43-.55,0-.54-.39-.46-.1-.7-.81-.54-.23-1.44-.12-2.94.61-1.5-.19-2.12.33-.4.29-.7-.19-.34.12-.61-.55-.31,0-.15.31h-.19l.07-.26-.57-.38-1.15-.24-.32.07-.2.43L174,245l-.41-.1-.15-1-.21-.28h-.16l-.07-.26,1,.07.33-.45.8-.58L175,242l.83-.4.57,1.27-.18,0-.07.23.5.33.32.53.05.44.31.25.21,0L178,244l.14-1,1.05-.86.07-.4.36-.14.32-.42.22-.71-.09-.8.54-.94.4-.31.13.48-.18.24.41.32.34.06,1-.21.7-1,.17-.58.08-3.08.61-2.25.39-.24,0-.61.75-.47.27-.4.78-.64.18-.87-.27,0,.87-.84.74-.11.56.65,0,1.29,1,.55.26,0,.76-.35.26-.29.12-.49.23-.17.87.29.12.2.29.09.4-.41.27.26.32,0-.09.15.23.52.49.26.38-.07.73.23.73-.53.49.31.93-.17.21-.16.43.25.49-.15.47.46-.09.12Z"/><path id="ID-GO" class="cls-2" d="M466.82,109.58l.59.2,2.41,0,1.67.18,3.41,1,.24.35,3,1.83,1.11-.69.85-1.22,2.55-.37h0l.21.82.54.39.86.23.7.69,0,.47.27.85.62.54,1.21.89,2,.35.54.58.31.85-.15,1.08.07,1L489,121l-.28,1h0l-2.14,0-1.5-.4-1.28-1.18-.81-1.2-1-.89-.51.38-1.38.14-8.43-.31h-1.82l-3.06.31-2.37,0-.51.13-.6.52-1.63.32-1.75.06-1.48-1.67-2.93-.32-.24.12-.2.68-.29.25-2.77.32h0l.28-.5-.17-1.47-.69,0-1.07-.34-.5-.78-.57-.31-.26-.43.31-.17.06-1.07.34-.34,1.06-.38,1,.38.52-.1,0-1,.35-.41.89.51,1.33,0,.48-.41h1.45l2.07-1,1.11-.3.79-.61.85-.14.49.8.49.52.42.17.3-.27.13-.65h.37l.52-.6.26,0Z"/><path id="ID-JA" class="cls-2" d="M160.61,155.65l-1.28-.52-.54.11-.32.16-.16.27.1.75-.32.43-1,.27-1-.11-.92.43-1.35.32-1.08-.27H152l-.5.18-1-.52-.45-.08-.72.36L149,158l-1.66.08-2.18.81-1.09,1v.81l-.2.76.08.32-.2.4v1.33l.56.48-.69.48-1.09.28-.08.41.2,1.56-.2.21.12.76-.16,0-.2-.36-.53-.12-.36-.65-.81-.44-.16-.44-.65-.56-.08-.77-.32-.36-.49-.08-.28.24-.16.44-.33.12-.2.29-.24.6.69.68.16.73-1.54.6-1.13-.36-.08-.24-.2,0-.29.52-1.9-.32-.72-.28-.57.84.61,1-.49.37-1,1.77-.45.36-.28,0-.28-.16-.93.76-.77.32-.2.2v.32l-.61.65-.48-.2-.41.08-.6.44-.09-.16h-.76l-.69-.16-.57-.56-.52-.29-.2.2H123l-.85-.52-.56.24-.08.73-.41.44-.81.12-.2.2-.61.16-.4.73h0l-.57-.17h0l-.47-.12-.84-.52-1.34.16-.69-.2-.48-.48-.33-.08-.2-.36-.4-.16-1.46-1.57-.44-.69-.37,0-.12.29-.56.16-.29-.2-.44.08-.28.48-.17-.12.33-2-4.71-3h0l.23-.51h0l-.18-1.65-.56-1.67-.39-.74-.71-.32-.35-.41-.15-.5-.47-.5-.15-.41-.21-3.65.18,0,.5.36.18-.36.15,0,.68.71.56-.35,1.06,0,.54-.27.56,0,.62-.18.38.36,1-.27,1.18-1.79,2-1.23.62-1.12v-.23l-.41-.35V151l.41-.47-.41-1.62.62-.61.62,0,.33-.24.62-.15.82-1,.3-.86-.12-.08-.35.26-.53-.44.11-.76-.14-.12,0-1h0l0,0h0l.6.1,0-.31.8-.18.18-.62.59-.29.24.21.11-.35.47-.27.4.06.45.33.41-.16.93.45.37-.33.39,0,.41.35v.31l.2.14.39,0,.86-.49.57,0,.3.76,1,.51,0,.64,1.22.12.47.76.77,0,.8.33.67-.09.61.42.29-.05.51-.61.69-.08.53-.86.47-.44.1-.36,2.1-1.5.85-1,.86-1.35,1.18.08.85-.22,3.61.63.39.31.85-.47,1.18-.11h0l.42.43.79.36.89,1.1.9.73,1,.42.63.52,1.1.26.53.37.84-.37,0,.11,1.22-.26,2.65.75,1.91.74,2.21-.75.4.07.75,1.74-.31,1.44.25.82.71,1.17L160,151l-.3,1.95.44,1.86Z"/><path id="ID-JB" class="cls-2" d="M205.67,229.27l.77.8.42.08,2.2-.5.91.26.88.94,1.22,2.06,1.61.62,1.06.13.86.94.42-.34.22.14.49,0,1.31-.79.62,0,.12.42.61-.33.15.27h-.28l.08.5,1.08.38,1.42.81,1.61.49,1-.62.42-.47-.07-.38-.35-.34.37.06.27.28,1.34,0,.63.45.08-.49.14-.07.29.4.16.54-.12.17.28.83,1.34,1.5,1.36.81.15,1.2-.09.57.37,1.85.65,1.15.59.15.28-.34.48.26.08.57,1.17.28.93-.46.05-.37-.31-.11.23-.27.47,0h0l-.07,1.47-.56.85-.25.11-.43.58.16.5-.05.65.65.37,0,.36-.27.23.1.31-.17.37,0,.37-.28.26-.66,0-.48.58-.58.06-.34-.31h-.34l-1,.48,0,.57.28.27v.51l-.47.81.09.82.18,0,.21.24,1.17-.09.51.48.11.48.55.59-.13.46.1.44.3.37.34.94-.08.52-.29.44.69.73.49.25h0l-.68.43-.52-.3-.74-.06-.47.31,0,.14.33.35-.14.13-.36-.22-.13-.51-1,0-.92.21-.4.39-.08,1.12-.45.32-.62.24h-1.69l-4.47-.77-1.54-.52-1.46-.18-1,.07-.18-.1-.1-.47-.45-.28-.49-.21-1.5-.16-.33-.73-1.22-.87-2.18-.79-.36-.31-1.31-.25-2.57-.19-2-.53-9.47-.66-.87-.25-.49-.47-.86-.28-.55.19,0-.35-.47-1.06v-.8l.57-.91.88-.19-.24-.52.1-.37.49-.42.45-.17.63-.85-.07-.91-.51-.51-1.23-.15-.47.17-.31.32h0l-.16-.76.18-.18-.1-.44.65-.69.08-.71.94-.44,0-.27.37-.25L195,243l-.21,0-.44-.48h-.16l-.11-.34.09-1.73-.56-1.24.11-1,.62-.09.25-.33-.44-1.4.67-.64.33.1.21.65.54,0v-.25l-.3-.16.1-.06,1,.27.3.36,2.91,0,.18-.61h0l0-.15h0l.52-.05-.24.68.12.15.9-.25.85.49.18,0,.21-1-.21-.37-.05-.56.63-.17.41-.86.06-2h0l.37-.06.18-.25-.25-.41.42-.28-.16-.22-.17.09,0-.34.31-.26.11-.66-.17-.23-.29.07v-.09l.6-.41Z"/><path id="ID-JI" class="cls-2" d="M313,272.79l.65.13.86-.05.48.3-.17.37-1,.24-1,.05-.45-.19,0-.52.35-.14.08-.27.16.08Zm42.62-23.22.54.18-.07.26.23.2.52.06.1.21h.26l.17-.14V250l.41-.18v-.23l.27-.13-.27,1.55-.3.23-.79.06-1.3-.64-.17-.33.28-.44-.16-.45.14-.24.15.4Zm-23.8,1.19-.28.06-.7-.19-.79-.55-.32-.62.23-.57.85-.26.49.34.74,1.51-.22.28Zm21.69-3.62.57.33.16.37-.55-.2-.58.14-.48-.18-.06-.34-.28,0-.11-.27.26-.33,1.07.51Zm-28.43-1.48,1.76.91.32.77-.57,0-.36.32-.53.19-1.23.08-.34.28-.45-.21-.21.13.6.28.42.47,1.44.08.23.66-1.6-.19-.64-.47.09-.32-.43-.19-.57.45-.13.28,0,.17.25.11.11.32-.11.23-3.59-.43-.6.38-.21-.09-.58.11-.42.47-.42,1.21-.68.45-.21-.17.13-.09-.08-.17-.76-.15-3.13-.11-.3.17-1.27,0-.3-.49-.34.06,0-.23.21-.26-.34-.3-.38.45.17.38.38.34-.93.09-3.55-.87-.49-.28-1.49-.09-.4.25-.66,0-.45-.36.23-.94h-.28l-.26-.68.21-.47.6.15,1.23-1,.6-.89,0-.34,1.06-.38,1.59,0,.68-.15,1.64.21,5.59-.06,1.19.17,3.46-.25,1.15.06,2.57-.38,1.48.33Zm22.26-.93,2.21.16,1,.33,1.49.84.24.44-.44.6-.43-.26-.45,0-.43-.43-1,.16-.33-.38-.41.06-.1.14-.5-.06.07.23.71.33.38.55-1.16.13-.27-.38h-.18l-.23.13,0,.38-.26.08-.67-.64.47-.54-.31.1-.84-.08-.14-.31.18-.62.5-.09.24-.33v-.18l-.43-.23.09-.1.33-.16.69.09Zm-61.39-1,.5.05.83.41.63,0,.93-.23.7-.4.44.05,1.15,1.9.39.29.91.12.89-.05,1-.43.47.12,1.3-.25,1.25.17.25-.14.53.15.59.45.66.13.37-.46-.23-.29.28-.18-.05-.34.4.34.12-.07,0,.31.28.39h.29l.21.28-.13.27-.22-.09,0,.27.32,1,.61.45.09.55-.38.44-.15.79.78.71,0,.38-.29.18v.29l.27.18.63,0,.17-.39.81-.09.36.27.39.71.7.56,0,.5-.22.26.2.1-.16,1.17.06,1.27-.37.06.34.6.47.15.14.22-.14.86.2.05.25.49.79.28.24-.18.37.41.48.23.4-.17.45.11.74.84,1.43.73.71-.14.67.11.59.7.39-.22.26.07.51-.2.38-.39.59-.06,1.65-.66.83.23.5-.06,1.55.44.75-.42.66.47.23,0,.5-.15.43-.52.58-.27,1.26.31,1.07-1.09.86-.43.56.39.59,1.23.16.07,1.6.12.65-.31.85.8,1.55.26,1,.6.45.63V263l-.78.69.2,1.3v1.12l-.42.79-.09.77-.31.66.1.74-.37.79-.42,2.22,0,.58.42.84-.22.66.23.21.17-.09.18-.86-.09-.55.12-.07.2.22,0,.5.2.52-.12.57.37.95.48.58.48-.38.62.6,1,.16.59.9-.25.78-.34.27-.7.16-1.63-.55-1.07,0-.48-.12-.06-.23.45-.22.12-.33-.16-.57-.61-.62-1.22-.55-.54.05-.15.18,0,.47-.16.1-1.94-.51-1.06.3-.26-.18v-.46l-.29-.12-.27.16,0,.21-.61.05-.23-.25.37-.1,0-.26-.28-.33h-.29l-.32.34-.58-.33-.84-.14,0-.41-.3.34-.16,0,0-.85-.2-.11-.66.23-.16.27-.23.09-.22-.11-.14.13-.09-.06.17-.43-.13-.25-.37.28-.2-.17-.17.12-.79-.92-.43-.16-.4.06.06-.12-.17-.12-.27.15-.52-.07-.78-.37,0-.41-.37-.16-.6.06-.6.36-.65-1.07-.29-.25-.8-.53-.93-.23-.87-.06-2.68.45-1,.6-.34.61-.52.42-3.65.5.08.5-.39.13-1.21-.63-1.07-.33-2-.17-.46-.28h-.46l-.83-.61-.76-.22-.59.31-.61-.09-.57-.31-2.53-.09-.46-.09-.28-.31-.47-.2-.63-.1-.1.12.11.22h-.78l-.71-.59-.22,0-.12.25-.65-.17,0-.16-.41.1.09,1.06-.31.18-.33,0,.11-.33-.22-.39h-.34l-.08.16.2.35h-.38l-.1.21.39.33.07.24-.5.13-.31,0-.16-.28-.75-.08.14-.2-.07-.33h-.22l0,.13-.33-.09-.15.18-.28-.07,0-.37-.31-.07-.24.46-1.29-.31-.17-.78-.33-.2-.66.37-2.5-.53-.52.35-1.24.11-.83-.58,0-.34-.28,0-.08.45-1,.11-2-.65h0l-.12-.82.25-.91.7-.92,1.26.33.84-.61.55.31.44-.7-.07-1.06.28-.19,0-.3.18-.18.64-.16.07.28.42-.06.27.33.3-.09.62-.68.18-.7.31-.24-.58-1.31.1-.56-1,0-.83-.68.1-.38-.07-.77.18-.62-.64-.42-.19-.8,0-.64-.27-.33-.3-1,.46-1-.06-.49.15-.42-.18-.12.19-.71.09-.13.33.1.4-.13.09-.18.21,0,.46.56,1.16.42.74.5,1.14.27.25.3.4.13.09-.27-.3-.15.16-.55h-.46l.36-.89.21-.21.15.1.22-.18.1.09,1-.5.68-.7.65-1.28-.06-.5.21-.33-.21-.9.19-.45-1-.67.3-.52.4-.16.24-1.35.67-.09.15-.21,0-.61.16-.18.18.15.2-.34h0l.39.27.38,0Zm16.67-18,.39.1v.3l.27.53-.18.82-.76.39-.63,0-.17-.14-.36.17h-.47l-.29-.52.27-.89.32,0,.07-.37.35-.22.29-.12.39.09.22-.34.3.3Z"/><path id="ID-JK" class="cls-2" d="M174,239.52l-.26.49.16.73-.3.61-.64.23-.42.57-.21-.28.38-.45,0-.4-.33-.26,0-.42-.28,0-.54.49,0,.31-.26-.16.28-.59,1-.75.52.12v-.26l.49,0,.26-.16.16.12Zm25.57-7.41,1.8.34.73-.41,1.4-.09h0l-.06,2-.41.86-.64.17.06.56.21.37-.21,1-.18.06-.85-.49-.9.25-.11-.16.24-.68-.53.06h0l-.44-.76-.16-.73-.39-.08,0-.66-.61-.33,0-1.12.6-.26h0l.4.17Z"/><path id="ID-JT" class="cls-2" d="M285.21,243.42l-.2.34-.18-.15-.16.18,0,.61-.15.21-.66.09-.24,1.35-.4.16-.3.52,1,.67-.19.44.21.91-.21.32.06.51-.65,1.27-.69.71-1,.5-.1-.09-.22.18-.15-.1-.21.2-.35.89H281l-.17.55.3.15-.09.27-.4-.13-.25-.3-1.14-.27-.74-.5-1.16-.42-.46-.56-.21,0-.09.18-.4.13-.32-.1-.09.13-.19.71.17.12-.15.42.06.49-.46,1,.3,1,.27.32,0,.64.19.8.64.42-.18.62.07.78-.1.37.83.69,1-.05-.1.57.58,1.3-.31.24-.18.7-.62.69-.3.08-.27-.32-.41.06-.08-.29-.63.17-.18.18,0,.29-.28.2.08,1.05-.45.7-.55-.31-.84.61-1.27-.33-.69.92-.25.91.12.82h0l-1.19-.29h0l0-.5-.12-.05-.18.18L270,268l.24-.61H270l-.32.38-.23-.18.05-.75-.57-1.61.23-.55,0-1.1.29-.84.05-.89-.29-.17L269,262l-.37-.46-.32-.13-.17.22-.41,0-.19-.33-.24.23-.14-.14-1.1.23-.21-.34-.23-.09-.36.23-.43-.4-.32-.06-.81-3.89L261.27,259l-.57.77-.26-.14,0-.59-.2-.17L260,259l-1.26-.13-.61.16-.18.43.32.28-.12.88-.34.51-.26.1-.2.42-.4.24-.31,1.28-.58,0h0l-1.69-.62-3.62-1-3.34-.53-.46-.18-1.19.26-.46-.34.17-.5-1.87-.42-3.08-.23-.77.12-.59.35-.16.3-.09.38.19.24.28-.09.12.16-.19.24-3.71-.8-.5.09-.17-.3.18-.27-.25-.08.3-.31.46-.07.18-.24h.4v-.15L236,259l-.83.3h0l-.49-.25-.69-.73.29-.44.08-.52-.34-.94-.3-.37-.1-.44.13-.46-.55-.59-.11-.48-.51-.48-1.17.09-.21-.24-.18,0-.09-.82.47-.81v-.51l-.28-.27,0-.57,1-.48h.34l.34.31.58-.06.48-.58.66,0,.28-.26,0-.37.17-.37-.1-.31.27-.23,0-.36-.65-.37.05-.65-.16-.5.43-.58.25-.11.56-.85.07-1.47h0l.1.24-.1.26.29.05.25.45,1.63.47.24-.4.35,0,.69-.47.3.07.34-.39.14.89.66.62h.87l.46.28,1.22.18h.76l.62-.2.42.08,1-.26,1-.57.69-.65,1,1L250,245l3.75,1.21.88-.09.64.17.76-.06,2.33-.77.39-.27.09-.25.76.24.5.82.87.32.33.27,1,.31,1.13-.25.12.23.61-.23v-.43l.47-.68.23-.74.59-.48.38-.77-.55,0-.15-.23.4.07-.25-.46.36-.08.26.16.41-.3.63-.84-.07-.82.24-.08.09-.78-.11-.17.55-.62-.29-.32.28-.11.7-.85,1.07-.37h.49l.35-.28,1.24-.13.86.21.47-.16,1.09.35,1,3.09.65.86,1,.23.7.37,2.31.23,1.4-.61.18-.49.49-.27.29.21.38-.09.7.29Z"/><path id="ID-KB" class="cls-2" d="M236,155.78l-.39-.07-.58-1.45.15-.3,1.59-.47.62.14.55.61,0,.26-.32.63-1.64.65Zm11.81-11.54.54.06.42-.33.63,0,.46.47.4.12.34-.14.33-.4.47.24.31.53.19.86-.07.53.23.25v.25l-5,2.89-1.31-.43-.44-.45.56-.61.18-.51.42-2.2,0-.43.75-1,.64.31Zm1.94-52.76-.5,1.38-.38.22-.3.75-.6.07,0,.48.17.65.45.32.4.62,1.2.3.15.35-.42,2.14.3.65,1.82,1.81.35.15.83,1.29,1.27,0,.5.2.25.3.17,1.39,1.49.74.35.87.43.35.6-.07.73.15.45.67.15.52.48.4.42.72.32,1h1l1,.25.9,1.37.35.27,1.2.42.73.07.55-.12.4-.67.45.45.45,0,.38-.32.77-.25.95-.55.72-.12.63-.55.27-.6,3.85-.5,2-.57.32.3,1.75.57.5.32.5,0,.7-.3.77.12.7,1.17.23,0,.1-.52.52-.07,1.13-.82.27,0,1,.52.58-.17,1.7.35.32-.77,1.35-1.39,3.22-.22,0-.65.25-.6.15-1.49.85-.84.05-.65-.42-.65.5-.55h.42l1.27-.79,1.57-.35.55-.27.08-.3,1-.37,2.9.37,1.65-.12.55.4.35,0,.57-.3.35-.47.2-.05.82.22.92-.07.63.12.52.3.13.4-.17.05-.5,1-.5.17-.3.3-.15.45.75.07,1.35-.45.37,0,.38.67.75.22,1.6-.15.77.2.72.5.17.35.6.37.3.37.4,0,.33-.3.57-.22.82,0,.67.3.75,1.34.32.1h.3l.35-.22.38-.45,1.9-.77.28-.84-.13-.2.07-.17,1.92-.79.4-.45,3.05-.32,1,.65.2.28h0l-.82.42-.12,1.72.21.18-.33.42v.69l-.21.69-.3.3-.52-.09-.55.36-.3-.15-.7.06-.52.42-.09.66-.3.24-.67.15-.09.36.33.3.12.42-.18.51-.52.51-.09.27.27.69.58.48v.3l-.52.63.06.81-.18.36-.67.27-.18.54.12.24h0l-.51.29-.23.71-.36.24-.19.44-.37.16-.19.42H320l-.68.42-.27,1.09-1.31.76-.16.31-1,.82-.05.23-.53.41-.92.56-1.38-.26-.74.2-.63.38,0,.19,1,1,1.55.82-.15,1.34.19.35.36.25-.26.38-.18.76.37,0,.07.22L315,129l-.44.26.34.2-.08.33-.36.07-.27.57-.56.52-.85.18-.42.6-.53.37-.19.6-.29.22.78.71.19.78-.66.8-.16.49-.12.08-.15-.14-.29-.5h-.49l-.14-.35-.38.12-.27.52h-.37l-.33.23-1.33-.14-.33.31-1.44.42-.67.63-.7.12-.58-.18-.58.15-.08.86-.74,0-.25.42-.89,0-.6.35v.2l-.92.08-.1.19-.85-.16-.08.46-.23.23-.37-.26v-.61l-.37-.14-.49.44-.85.31-.41-.18-.36.44-.41-.48-.64-1.21-.34-.29-.55,0-.82,1.14.23.72-.1.07h-.38l-.77-.31-1.08-.11-.19.18.31,1.12-.07.31-1.21.34-.37-.15-.49-.53-.14.86.29.76-.67-.15-.15.07-.16.57-.46.26-1-.07-.77.27-.22.3-.93.56-.59,0-.3.37.18.69-.47.48-.48.15-.27.54.31.64-.26.48.33.29-.12.3-1.19.2-.31.26h-1.11l-.22.18L280,149h-.3l-.36.75-.63.33-.16.6-.42.48-.21,0,0,.29-1.11-.22-.12.53-.38-.14.14.79-.08.65-.31-.14,0-.49-.27-.16-.82.49.26.39.07.45-.81.22-.37-.42-.48.15-.3.3-.49-.39-.44.54-.88.22-.29.42-.55.38,0,.78.44.11.18.44.26.19.42-.1.18-.14.11-.45.42-.18.29.16.22.52.12,1.2-.15.38-.37.34-.11.44,0,.64.33.41,0,.37-.34.42.15.42.34.23.52-.14.89.12,0,.15-.15.4.07.42-.7.59.68,1.29,0,.23-.19.23,0,.29-.62.72.69,1.13.52,1.82.08,1.31.53,2.06-.33.82.45.27H276l.15.45-.52.91-.9.45-1.45.37-.15.57-.62.52-1.18.2-.78.48-1.21.41-.38.29-.34.94h0l-1.33.83-.34-.14.08-.3-.19-.69.08-.84-.37-.87-.47-.57-.64-.07-1.08.33-1.31.63-1.95,1.6-.2-.27-.47-.1-.17-.94-.34-.57.54-1.07.1-.6-.34-.47-.41-.19-.18-1.66-1.26-.37.67-.8.25-1.26-1-3.8-.73-.87,0-1.11.49-1.46v-.68l-.7-1.8-.69-.5-1.67-.71-.78-.75.19-.92,1.34-.79.69-1.2.65-3.33v-1.52l-.22-.74-.21-.38-.66-.52-.8-.18-.87-1.1.52-1.4-1.92-.63-1.17-1.61-.67-.41-.73.49-1.13-.75-.41-.76-.3-.27-2-.55-.29-.27-.48.12.2.84-.26.41-.26.08-1.72-.57-.56-.57-.46-.89.2-2.6.46.12.36.37,1.15.34.79,0,1,.63,0-.51-1-.73-.87,0-.23-.46.27-.46,0-.66-1.42,0-.4.13-1.68-.6-.72-.81-.43-1.93-1-2.58.34-.59.64-.13-.17-.81,1.13-1.79.38-1.61-.2-1.18-.84-1.89-1.1-1.16-.82-.24-1.23,0-.28-.26,0-.63.45-.94v-.52l-.71-.84.47-2.12-.27-.92-.73-.79.25-.87-.75-.89.15-.43.69-.55.52,0,.67-.69.39-1.14-.43-1.42-.49-.42-.47-1.36.13-.2.73.17v-.76l.6-1.12.73-.73.23-.79-.2-1.26.13-.89.37-.69.74-.69,2.22-1.34.54-.59v-.45l.5-1.09.7-1,.06-1-.26-.61.07-.26.47-.17,1.38,0,.31-.44.47-.2,1.69,0,1.21-1.4Zm-14-13.37-.17.06-1-.74.92-.77.31-1,.48-.17.27.08.18.35-.18,1.49Zm-53.61.22-.38,0-.26-.27-.33-2.69.12-.88.18,0,2.55,1.42-.61,1.34-.87.88Zm44.48-14.45-2.29.48-1.46-.81.6-.84,1.25-.91-.63-.37-1.79-.59-1-1.85-.23-1.12.59-.71.74-.21,2-2.05,1.21.28.11.84.22.49,2.2,2.17.16,1.79-.22.78-1.44,2.63Z"/><path id="ID-KI" class="cls-2" d="M393.77,84.72l1.44,1.57.74,1.23,0,.43-.61.92-2.71,2.45-1-.42h-.3l.47.44.21.71-.09,2.17.15.6.8.91,2.3,1.59,1.45,1.46,4.93,2.9.53,1.35,1.32.61.59-.09.6.18,3.1,2.66.35.92.76.89,1.17.47.27,0,1.25.41.18.16.07,1-.56.8-.73.69L408,113.33l-2-.77-3,.28-2.79-.25-3.08-.58-1.63-.74-.7-.72-.67-1.8-.67-.57-.81-.4-.24.09,0,.44,2.4,4.1.09.74-.23.37-.38.07-.34-.1-.75-.7-.58-.1-1.59.51-1.2,1.17-.36.77v.91l-1.71,3.53-.91.66L386,122l-.71,2.1-.24,1.23.44,1.23.47.42.15.69-.19.43-.63.67-.79,2.47v.47l.6,1.28-.45,3.12,2.57-1.67.45-.14.21.09.07.27-1.06,3.59.82,1.77,0,.44-.14.22-2.79,1.24-2.14-.12-.7-.83-.42.26-.14.8-1.95,2.35-2.05,3.34L377,148l-1.4.62-1.84.33-1.32-3,.31-1.12-.08-.2-.24.06L372,146v.54l.7.7.59,1.31-.55,2-2.25.78-1.5,1-.13.16.09.76.49.79-.11.48-.33.4-2.37.94-1.66.81-1.43.9.12.31.53.27.7-.15.59-.47.82-.18.72.08.35.21.26,2.24,0,2.27-.39.49-1.09.38-.25.28,1.32.28H368l.41-.4.34.74-.05.34,1.42.38-.11,1.39-.7,2.47h0L368,168l-1.1-.29-2.7,0-1.28-.42-2.73-.15-.39-.07-.53-.49-.54.49-.78.29-.1.31-.39.36-.54.17-.28-.53,0-1-.71-1.73.18-1.52.36-.56-.15-.25-.6-.25-.5.14-.35-.28-.18,0,.21-.6-.28-.32v-.42l.32-.71.07-.71-.14-1.87-.36-.74-.49-.56-.11-.5.14-.31-.71-.57-.14-.32.14-.7-.28-.39-.61-.11-.6.25-.18-.35.07-.35.64-.57.43-.67.82-.7.32.07-.15.77.25.07,1.07-1.27.25-1h0l.23-1.3.45-.53.91-.66,0-.26-.76-.66-.32.07-.34.33-.23-.14-.19-.69-.34-.14-.4-.44-.42.05-.21-.95-.23-.29-1.32-.84-.6-1-.79-.69-1.68-.3-.41-1,0-1.19-.28-1.9-.5-.43-.39-1-.72-.74-.23-.06.21-1.09-.37-.1-.19-1.46.42-.08,0-.48-.29-.45.55-1v-.67l.44-.26.42-.58-.36-1.12-2.42,1.17-.29.66h-.47l-.47.23-.76.66-.9-.24-1,.19v-.53l-.21-.47.08-.64-.45-.85-.1-1.44-.24-.31-.37,0-.32-.35-.59.11-.29-.5.37-.88L339,124l.43-.48,0-.35.39-.07.19-.2.53-1.13.67-.43.27.06.11.21.31-.16.73,0,.17,0,.34.48.15-.32,1.19-.83.2-.39.05-.71-.65-.57-.32-.65-.73-.86-.56-1.16-.29-1.61-.39-.7-.45-.37-.51-.14-.8.75,0,.23.3.48-.47-.12-.2-.42-.53-.33-.39.24-.5-.07-.82.6-.32-.14-.55.1-.49.65-.89.64-.79,0v.63l-.21.39-1,0-.67.45.06.67-.21.06-.7-.12-.51-.43-.73-.18-1.55.18-.42-.18-.1-.42-.63-.33v-.21l.33-.33-.33-1L327,115l-.3.12-.36-.09-1.28.66-.54-.09-.7.24-.24-.06-.25.18-.42-.33h-.49l-.12-.24.18-.54.67-.27.18-.36-.06-.82.52-.63v-.3l-.58-.48-.27-.7.09-.27.52-.51.18-.51-.12-.43-.34-.3.09-.36.67-.15.3-.24.1-.66.51-.43.7-.06.3.15.55-.36.51.09.31-.3.21-.69v-.69l.33-.43-.21-.18.12-1.72.82-.42h0l.37-.15h0l.24-.45.7-.09,1.58-.67L332,101l2.58,1.51.4-.12.21-.43h0l.79.42.25.46.62.51,1.59.46.78.87.2,1,.21.26.82-.46.72.1.52.21.31.4.15.62.41.46.46.2.67,0,.88-1h1.34l.56.26.77.1.83-.92,1,.2.77-.92.51-.25.26-1.59L351,103l2,.06,2.31-.87,2.32,0,1-.87.56-1.18.88-.77,1.59-2.14L363,94.72l-.31-1.17.1-.67.47-.56,1.08-.56.25-.67.67-.41.16-.82.05-2.2.2-.71.83-1.38.36-.26.31-1.33.25-.31.52,0,.56.57.78.3.3.31v.41l.62.31.72-.06,1-.3L373.68,84l2.26-.77,2-1.17,1.29,0,1.44.3,1.59-.41h.88l.51,1.13.62.46,1.29.61.51.11,1.08-.26.46.31,1.14,1.38,1.38.51.37,0,1.28-.77,1.29-.15"/><path id="ID-KR" class="cls-2" d="M160.45,132.94l.12.27.76.22.12.44.59.93.42.32-.07.24-1,.83L161,137l-.15,1.08-.12.1-.42-.1-.66-.88h-.2l-.49.2-.15,1.27-.49.2-.22-.29-.12-1-.37-1.22-.64-.29-.54-.61.22-.86.25-.32,0-.34.62-.07.12-.15.07-.78.22.76-.44.42.42.64.17-.15,0-.71.12-.05.25.27.62,0,.49-.32v-.59l.17-.2.62-.2.17.08Zm5.26-2.37.15.1.37-.1,0-.9.25-.2,1.18,1.59.94.76.76.07.07.44-.3,0-1.16-.49-.29.27.44.51-.12.24-.91-.46-.39.12-.91-.66,0-.22-.15-.12-.37.05-.3-.54-.81-.44-.89.15-.89.61-.54-.1-.66.51-.37-.15-.15-.44-.71.15-.49-.24-.05-.22,0-.64.69-.51.1-.22.59-.22-.17-2.27.81-.37,1,.51.64.56.54.81.25,0,.25.49.62.49,0,.42.2.29.68.3Zm-6.92-6,.17.22.07-.44.25.12.27-.07,1.92,2-.44.15-.15-.1-.39.37-.49-.29-1.28-1.42-.91-1.56.22,0,.76.92ZM161.2,123l1.75,2.15.76.78.57.32.1.27-.17.29-.66-.32-.62-.61-.94-.61-.89-1.22-.74-.61,0-.51.62.15,0-.2Zm-2-1.59.57.39,0,.1-.44-.07-.07.15.25.07.1.27-.25.07-.62-.42.07.27-.2.07-.25.39-.3-.07-.47-.83-.22.07-.07-.64.07-.17.47.42.17,0L158,121l-.44-.22-.22-.32.32,0,1.51.91Zm-2.39-7.91-.2.39,0,.44.7.53-.33.06-.47.28.93.18.07-.32.39.29-.2.29-.64-.15v.93l-.12.1-.57-.46-1.3-2.2,0-.17.49-.12.29,0,.64-.2Zm-6,.42-.1.17-.47-.64-1.06-.9-.22-.37-.07-.56,1,.39.66.61.12.42.42.51-.1.29-.16.08Zm-1.5-.25-.22.49-.17-.42-.37-.05-.84-.56-.47-.78V112l.27,0,.32-.42,1.13,1.27.35.91Zm-6.18-1.89.11.64,1.14,1.32-.2.35-1-.75.41.72-.17.79.31.37-.39,1-.17.17-.35,0-.24-.37-.15.13-.57-.18-.31-.64-.61-.7-.18-1.8.33-.48,0-.73.54.13.22.31-.11-.55.13-.44-.11-.13.55-.42.5.07.17.27.09.91Zm11.06-1,.32.1.15-.44.42,0,.32.39-.15.51-.3.07.1.51.42.15.37-.07.79.34v.2l-.32.37-1,.65-.35,0-.37-1.2L154,112l-.25.1,0-.95-.2-.17-.34.32-.27-.24.17-.66.49-.1.59.27,0,.19Zm-5.47-.3h-.2l-.71-.78v-.32l.42-.34.49.49Zm1.18-1.93,0,.27.32.37.25.22.27.27,1.23.66,0,.49-.3-.07-.12.17-.12.2.1.39-.15.15h-.22l-.49-.61-.74-.24-.66-.51v-.56l.2-.22-.64-.61.12-.29.34.17.37-.24v-.49l.17.1Zm-8-1.12.06.17-.13.07-.35-.11-.06.75.26.6.35.06.5,1.12-.87,0-.09-.22-.59-.07-.72-.53,0-.77.18-.13.13-.48.7-.2.33-.57Zm12.78,0,.05.49-.22.22v1.2l-.74.05-.17.44.2.44-.84-.22-.25.22-.49-.15-.15-.24-.76-.08-.71-.46-.32-1,.05-.27.4-.06-.08.55.37,0-.07-.71-.17-.07,0-.27,1.21.12.17-.81.37-.07.57.71.34.1.17-.24-.25-.17v-.34l.57-.24.44.37.33.54Zm7.46-.54.15.66.74.44.47,1.2-.25,1.22.07.39.2.2v.42l-.27.07v.24l.25.12.62-.07-.12.51-.76,1-.57-.24-1,0-.57-.2-.76-.66-.25.1-.69-.17,0-.17.69-.17-.47-.42.1-.27-.12-.17-.44-.37.22-.34.57.05-.2-.44.42-.51-.44-.42-.79.42,0,.56-.17.15h-.3l.05-.37-.47-.17-.17.37-.22.12-1.18-.07-.37-.32-.27-.61-.12-.44.52-.76,1.5-.24-.27-.76.39-.17.71.15.1-.2.39-.15,1.13.46.62,0,.59-.37.2-.51.42-.12.15.1-.11.86Z"/><path id="ID-KS" class="cls-2" d="M366.42,189.54l-.17.2-1.1-1.78.65-1.65.86-1.09.23-.06.2.45v.59l-.67,3.34Zm-4.71,7-.56.16-.53-.05-.07-.21.06-.77.39-1.28-.06-1.79-.9-1.25-.25-.81,0-.66,1.9-5.56,2.45-1.75.23.06.06.35-.36,2.29.27,2.65.82,4-.24,2.43-2.51,1.88-.72.33Zm-6.34-46.88-.25,1-1.06,1.27-.25-.07L354,151l-.32-.07-.82.71-.43.67-.64.56-.07.35.18.35.6-.25.6.11.28.39-.14.71.14.32.71.56-.14.32.11.49.5.56.35.74.14,1.87-.07.71-.32.71v.42l.28.32-.21.6.18,0,.35.28.5-.14.6.25.14.25-.35.56-.18,1.52.71,1.73,0,1,.28.53.53-.18.39-.35.11-.32.78-.28.53-.49.53.49.39.07,2.73.14,1.28.42,2.7,0,1.1.28,1.33.62h0l-.39,1.87-.52.66-.4,0-.16-.16-.12-.61-.76-.4-2,.4-.05,1.62,1,.91.2,3.11-.33.85-1.39,1.8-.51.26-.23-.05-.24-.35-.21-1.2-.95-1.65-.2-.19-.13.14-.38,1.72.19.89,1,1.4.57.5.1,1-.77.39-1.25,1.71-1.52,2.87-.38,2.45-.24.47-.38.22-2,.29-1.15,1.1-.65.42-3.24,1.38L347.28,194l-6.2,2.59-3.79,2.28-1.24.16-.36-.39-.13-.57v-7.32l-.11-.84-.35-.7-1-1.34-.71-.66-.73.08-1.54-.88h0v-.91l.78-2.37,1.46-2.29.39-2.26,1.53-3,1-.28.35-.28.18-.21-.14-.25.21-.39.36.11.85-.32.46-.6.32-1.8.7-.55.5-.78,0-.64.21-.32.57,0,5.9-4.27.39.28.32,0,.21-1.31.39-.81-.71-1.55v-.39l1-.74.25-.81-.67-.92-.11-.78.71-2.22.89-3.88.14-.18,1.85-.14,1.81-.67.39-.32.5.11,1-.78h0l.39-.3Z"/><path id="ID-KT" class="cls-2" d="M268.62,178.55l.35-.93.38-.29,1.2-.41.78-.47,1.18-.21.62-.52.15-.57,1.45-.37.91-.45.52-.91L276,173l-.34,0-.45-.28.33-.81-.53-2.07-.09-1.3-.52-1.83-.68-1.13.61-.72,0-.29.19-.23,0-.23-.69-1.29.7-.59-.07-.42.16-.39-.05-.15-.89-.13-.52.14-.34-.23-.15-.42.34-.43,0-.36-.32-.41,0-.64.11-.44.37-.34.15-.38-.12-1.2-.22-.52-.29-.16-.42.18-.11.45-.18.13-.42.1-.26-.19-.18-.44-.44-.11,0-.77.55-.38.28-.43.88-.21.44-.55.49.4.3-.3.48-.15.37.42.81-.22-.07-.45-.26-.39.82-.49.28.16,0,.49.31.14.09-.66-.14-.79.38.14.13-.53,1.11.22-.05-.29.21,0,.42-.48.17-.59.63-.33.36-.75h.3l.12-.54.22-.18h1.11l.31-.26,1.2-.21.12-.3-.33-.28.26-.48-.32-.64.28-.54.48-.15L284,145l-.17-.69.3-.37.59,0,.93-.56.22-.29.76-.28,1,.07.46-.26.16-.57.15-.07.68.15-.29-.76.14-.86.49.53.37.15,1.2-.34.07-.31-.31-1.11.19-.18,1.08.11.77.31h.38l.1-.07-.24-.72.83-1.14.54,0,.35.28.64,1.21.41.48.36-.44.41.18.85-.31.49-.44.37.14v.61l.37.26.24-.23L299,139l.85.17.09-.19.92-.08v-.21l.6-.35.89,0,.25-.42.74,0,.08-.85.58-.15.57.17.7-.12.67-.63,1.44-.42.33-.31,1.33.14.33-.24h.37l.27-.51.39-.12.13.35h.5l.28.51.15.13.13-.08.16-.49.66-.8-.19-.78-.78-.71.28-.21.2-.6.53-.37.42-.6.86-.18.56-.51.27-.57.36-.07.08-.33-.34-.2.44-.26.35-.79-.07-.22-.37,0,.18-.77.26-.38-.35-.24-.2-.35.16-1.35-1.55-.81-1-1,0-.19.63-.38.74-.2,1.38.25.92-.55.53-.41.06-.23,1-.82.16-.31,1.32-.76.27-1.09.68-.42h.4l.19-.42.37-.17.19-.43.36-.25.23-.71.51-.29h.49l.42.33.25-.18.24.06.7-.24.54.09,1.28-.66.36.09.3-.12.73.45.33,1-.33.33V117l.63.33.1.42.42.18,1.55-.18.73.18.51.43.7.12.21-.06-.06-.67.67-.45,1,0,.21-.39v-.63l.79,0,.89-.64.49-.65.55-.1.32.14.82-.6.5.07.39-.24.53.33.2.42.47.12-.3-.48,0-.23.8-.75.51.14.45.37.39.7.29,1.61.56,1.16.73.86.32.65.65.57-.05.71-.2.39-1.19.83-.15.32-.34-.48-.17,0-.73,0-.31.16-.11-.21-.27-.06-.67.43-.53,1.13-.19.2-.39.07,0,.35L339,124l.08.42-.37.88.29.5.59-.11.32.35.37,0,.24.31.1,1.44.45.85-.08.64.21.47v.53l1-.19.9.24.76-.66.47-.23h.47l.29-.66,2.42-1.17.36,1.12-.42.58-.44.26v.67l-.55,1,.29.45,0,.48-.42.08.19,1.46.37.1-.21,1.09.23.06.72.74.39,1,.5.43.28,1.9,0,1.19.41,1,1.68.3.79.69.6,1,1.32.84.23.29.21.95.42-.05.4.44.34.14.19.69.23.14.34-.33.32-.07.76.66,0,.26-.91.66-.45.53-.23,1.3h0l-.35.31h0l-1,.78-.5-.11-.39.32-1.81.67-1.85.14-.14.18-.89,3.88-.71,2.22.11.78.67.92-.25.81-1,.74v.39l.71,1.55-.39.81-.21,1.31-.32,0-.39-.28-5.89,4.27-.57,0-.22.32,0,.63-.5.78-.7.55-.32,1.8-.46.6-.85.31-.36-.1-.21.39.14.24-.18.22-.35.28-1,.28-1.52,3-.39,2.26-1.46,2.3-.78,2.36v.91h0l-2.42-1.15-1.86-.5-1.22.09L322,186.6l-1.85.28-.8,0-1.07-.65.49-1.56.07-1.58-.26-.91-.36-.53-2.26.14-.45.49-.17.6-1.27.29L312,181.81l-3.12-3.26-.52-.07-1.47,1.6-.11.57.44.57-.3,1-3.31,2-1.18.83-.7.72-1.75.54-.32,0-2-1.57-1.93-.67-1,0-1.45.56-3.69,3.52-.61.34-.41.06-1.45-.6.65-2.28-.47-3.66v-.82l.28-1.08,0-.72-1.36-2.43-.4-1.6-.48-.07.07.8-.57.84.43.35-.1.45-.94.17-.3.33-1.24.77-.17-.47-.91-.8-.74-.57-.43-.07h-1.48l-3.05,1.75-1.22.53-1,.3-1.48.2L270,178.31Z"/><path id="ID-KU" class="cls-2" d="M388.45,70.62l-.56.43-1.29-1-.47-1.24,0-.41.16-.22,1.46-.12.82.25.15.32Zm-4.73-4.79,2.2,1.3v.2l-.54.47-1.69-.74-1.93-.1-.64-.31-.4-.54.08-.43.91-.38,2,.53Zm5.69-7.4-.78.29-1.19-.87-.18-.89.07-.22.78-.85.49,0,1.25,1,.1.47Zm2.78-3.31.43.19.42,2-.56.44-.51.08-.61-.31-3.52-2.82.06-.26.9-.74.51,0,1,.35.19.38.58.42Zm-38,1.44,0-.93.33-.67.37,0,.79-.91.4.06.14.33.41-.11.13-.57.72-.6-.14-.42.12-1,.53-.19.33.57,1.51.3.27.2.11.49.65.5.2-.13.39-.76.85-.33.13-.64.15-.11,1.41.21.3.18,1.52-.35,1.17,1,.2.64.59-.14.23-.54.37.16.47-.08-.05-.62.54-.67.41.45.38.12.25.61.77-.24.53.16.31-.1.28-.16.26-.5L373,52l.38.48.26-.11.49.28.69-.2.53-.41.73.18.29.23.65.06.28.3.34-.39,1.11.15.65-.17.59.11.64-.16.09-.19.53-.21,3,2.15.4.86.24.15,1.21.34.89-.26.24.17h0l-.81.5-.91.28L384,55.67l-.17.19v.56l.39.32,1,.23,2.64,2.22-1.75.26,1.66.95,1.56.17,1.27,1.34,0,.26-.25.64,1.06.32-.08.25-1.2,1.12-1.07.21-3.17.23-2.67-.38-1.8.3-.48.29-.44.65,0,.41.56.87,1.48.93,1.26-.15.8.21,0,.84-.28.52,1.76.92-.17.28-1.26.17-.86.34-.29.46-1,.17-.17.34.54.32,2,.35L387.65,74,388.87,76l-.28,1.61v1.26l1,.18.8.49.21.33.14,1.34L391,82l2.78,2.74h0l-.69.59-1.29.15-1.29.77-.36,0-1.39-.51-1.13-1.38-.46-.31-1.08.26-.51-.1-1.29-.61-.62-.46-.51-1.13h-.87l-1.6.41L379.23,82l-1.29,0-2,1.18-2.26.77-1.75,1.13-1,.31-.72,0-.62-.31V84.8l-.29-.31-.77-.31-.57-.56-.51,0-.26.31-.31,1.33-.36.26L365.66,87l-.21.72-.05,2.2-.15.82-.67.41-.26.66-1.08.56-.46.56-.1.67.31,1.18-1.29,2.45-1.6,2.15-.87.77-.57,1.18-1,.87-2.32,0-2.31.87-2,0-.41.41-.26,1.58-.51.26-.77.92-1-.2-.82.92-.77-.1-.57-.26h-1.34l-.87,1-.67,0-.46-.2-.41-.46-.15-.61-.31-.41-.51-.2-.72-.1-.82.46-.21-.26-.21-1-.77-.87-1.59-.46-.62-.51-.26-.46-.79-.42h0l.49-.81-.18-.3.12-.75.8-.47.52-.92.38-.31.13-1-.11-1.19-.13-.13.49-.66-.07-.27.56-.16.54.25.45-.64.67-.11.36-.34-.4-.81.05-.23.69-.52,0-.22-.51-.25-.76.34-.2-.45.16-1-.35-.19-.16-.29,0-.82.34-1.31,1.84-.2.78-.49,0-.23-.33-.43.31-.63.67.11.43-.23.51-.59H344l.2-.59.45-.41.58-.18.78,0,.6-.5.07-.31-.47-.34-.11-.34-.67-.79-1,.31-.31-.47.31-.38.09-.41v-.49l-.23-.14v-.38l.6-.52V79.4l.18-.34-.18-.27-.51-.13,0-.18,1-.77.25-1.06,1.59-1.06.34-.83.61.65,0,.41,1.23-.09.81-.77,1-.14.18-.34v-.84l.13-.25.81-.67v-.2l-.71-.52-.05-.18.42-2.81.63-1.26.34,0,.4.63.4-.58-.58-1-.13-1.1-.38-.47-.16-.86.05-1.55.14-.71.52-1,0-.56,0-.18-.78-.56-.13-.31.85-.23.45-.41.67-2.08h0v-.19Z"/><path id="ID-LA" class="cls-2" d="M148.28,209.53l.65-.05,0,.51.43,0,.38.48V211l-.43.4v.21l.35,0,.75.7.3-.35.16-.89.51.38,1.4-.16.24-.21.19,0,.08.24.91.27,1-.54.13-.38.38-.08.46.27h.4l.3-.19.4.38.35-.11.73-.94,0-.35-.11-.35-.67-.62-.05-.83-.54-.32.27-.78.65-.64-.3-2.71.27-.83.27-.08.08-.38.8-.56.51-.59.62,0,.62-.51,1.21-.48.67-.56.4.51.22,0,2.21.11L167,200l.08-.35,1.13-.56.62-.24.62,0,.38-.51.62-.43.32-1,.3-.32.38,0-.3-.35.43-.43.27-1.07.22.13.16-.08.11-.51.54-.27.67.24.7-.64.22-.48-.27-.62.4-.32.11-.56.35-.46.22.13.3,1.07.32-.24.54-.11.32.08.11.72.78,0,.19.27h.59l-.13.8.13.16.4-.16.35.27-.05.46.24.19.32-.19.11.08.11.32h-.38l.46.38v.24l.3.32-.4.54-.05.29.24,0v-.27l.24.13.46-.05.08.05-.3.29v.24h.65l0,.24.27.11-.11.46.19.13.75.08.3-.13,0-.27.22-.05.51.27.29.55h0l-.19,2.7,1.46,2.41,0,.33v1.25l-.34.83,0,.35.49.48-.6,1.22-.36,1.87.18.86.49.62.11.38,0,.22-.49.26-.27,1.24.15,3.61-.15.53-.49.33-.13.53.09,2.17-.17,1.61.21.73-.58,2.13.07,1.18-.36,1.05-.79,1.12-.27.11-.16-1-1.66-.22-.35-.27-.2-.51,0-.51.18-.34-.09-.23-.58-.55h-.53l-.2-.24-1.38-.77-.83-.78-.27-.71-1.16-1.73-.33-.07L174,221l-.16.31v1.77l-.13.27-.73-.25-.6.41.39.49v.32h.32l-.48.34.2.22v.35l.43.31-.09.12h-.63l-.37.4.26.46.75-.08-.51.53-.57.1-1.68-.92-1.68-.7-3-1.91-.74-.58-.79-1-.56,0-1-.31-.86.4-.46.4.41.26.13.58,1,1.21.37.25.29.53,0,.35-.16.11,1.18,1.77-.11.29.44,1.17-.09.2-2.48.13-.37-.21-.08-.23.31-.16-.18-.73-2.12-1.93-.41-.72-.84-.62-1.18-.55.33-.46-.94-1.15-3-2.09-1.48-1.71-.12-1-.32-.3-1.31-.29,0-.42.53-.55-.16-.49-.4-.47-.24-.23-.36,0-.47-.62-1-.75h-.31l0,.2-.18,0-.18-.11.07-.71-.78-.66-.71,0-.64-.55-.53-.13h0l.18-.53.32,0,.57-.54.43-.08.51-.4.13-.51.81,0,.11-.11h0l.12-.06Z"/><path id="ID-MA" class="cls-2" d="M584.82,269.63l-1.56-.07-1.47-.72-.16-.33,1-.38,1.36.07,1,.51.06.52-.31.4Zm-20.27-2.88,1.84.65,1.74.15.87-.15.44.27,0,.25-1.58,1.67-.19.05-3.38-1.12-.48-.3-.68-1.31,1.39-.16Zm51.21,4.36-.67.05v-.23l1.59-1.72,1.23-.67.59-1,.9-1,.33-.09,2.52.81-.63.62-3.16,1.22-1.08.77-.15.44-1.15.74-.31,0Zm-17.94-5.06-1.26-.3-1.91-2.34-.14-.39.15-.73.1-.38.28-.31,1.63-.22,2.05.55.39.32.34,1.44-1.63,2.36ZM545.1,259.3h.81l.43,1.34-1.41.06-1.68.51-.9.64-1,1.19-1.47.78-2.43-.28-2.73-.54-1,0-2.3.48-2.23,1.79-.3.06-.18-.25.7-2.67,2.76-3.36,3.69,1.09,2.65-.46,1.24-1.07,1.29-.6,2.3-.58.21.15.08.67,1.44,1Zm11.67-.35-.26.13-.34-.07-.24-.41.37-2,.36-.23,1.69.55.06.26-.13.7L556.77,259Zm63.64-2.43-1.34-.42-.23-.53.31-.48.52-.19,2.33-.24.21.14-.74.9-1.06.82ZM632,251.28l-.73.31-.38-.07-.61.5.67,3.27V256l-.85,2.56-1,1.3-3,2.18-1,1.6L625,264.9l-.2.34-.46.24-2.88-.28L621,265l-.42-2.3,1.82-3.14-.23-.51,1-2.85,1.2-1,.47-.18.91-.86,1.23-1.49,1.36-2.4.76-.41,1.3-.14,1,.49.5,1.11Zm3.24-1.76.9,1.34.15.64L636,252l-.18,0-.84-.58-.41-.89-1-.18-1.17.26-.51-.1-.14-.22.1-.48.29-.2Zm-56.61,1.75-.49.17-1.51-.94-.23-.41.06-.21.32-.36,1.22-.74,1.39.76.08.2-.4,1-.44.54Zm108.06-14.83-.3.33-.63,1.45-.1.66L685,240.1l-.26-.23-.46.07-.07.4.17.46.3.17v.4h-.33l-.33.2-.13.69-.66,1-.53.5h-.3l-.56-.43.07-.46.5-.46.33-.79.07-.83.4-.59-.3,0-.23-.3-.33-.89.1-.5.66-.46.73-.26,0-.73.17-.23.69-.33.3-.53,1-.79.53,0,.3.3-.13.88Zm-36.79-7.18-.61.25-.82-.26-.44-.44,0-1.24-.23-2.15-.48-1.37.11-.32,1.12-.32,1.81,3.45V228Zm33.85-4.39.1,1,.4,1.09-.63.13v.3l1.32.66,0,.33-.17.26-.4.1-.76-.33,0,.5.4.26.07.23-.07.43-.26.13-.36-.07-.63-.5-.17.13v.3l.93.66.2.36.56.33.36.59-.36,2.31-.3.92-.66,1.12-1.26.66-.5-.1-.23.2.36,1,.53.33-.07.5-1.09,1-.89-.26-.33.17-.23.56.1.33.5-.17,0,.5-.63,1-.69.46-1.32,1.52,0,.66-.5.63-2,.89-.3.33-.46-.05-.36-.89-.33-.3h-.69l-.76-1.32v-.36l.23-.2.36-1.52.23-3.11.3-.76,0-.43.3-1-.13-1.75-.43-1.52.66-.07-.43-1.19.23-.56v-.5l.43-.36.17.17V231l.26,0,.5-.3h.5l.1.66.2.17.33-.1.46-.46.53-1.32v-.2l-.5-.3,0-.3.17-.3.53-.4.07-.33.4-.33.26-.63-.07-.23-.3-.13-.5.3-.73-.59-.83-.1-.5-.53.07-.33.63-.69,1,.63.36,0,1.29-1,.63-1.65.76-.5.07-.63-.2-.86.17-.46.89-1.22.63-.17.36.2,1,1.65.5.43,0,.33.43.66,0,1.12.83,1.06-.07.5-.41.19ZM653,228.05l-1.83,2.38-.17-.05v-.31l1.61-5,.34-.6.59-.56,2.22-5.58.41-.17.57.08.33.7-1.35,4.39-.53.65-.85.5-1.17,1.6-.28,1ZM576.3,189.27l-2.08.41-.13-.13.26-.58v-1l.53-.39,1.21.12.92.91,0,.2Zm1.74-1.65.82.29.36-.65.26,0,.29.78v1.19l-1.44.22-.22-.09-1.2-1.68,0-.31.22-.21.26,0,.68.45Zm-5,1.8-.64,1.16-1,.84-2.11.61-.38,0,1.81-1.71.22-.45-.28-.12L567,192l-.75-.05-.42-.53,0-.84.9-1,1.08-.69,2.71-.52.77-1,.71-.29.55.13.57.33.15.24-.2,1.59Zm-12.15-4.48-1.94-.56-.69-.68.75-.6.78.1.94.88.46.66-.3.2Zm2.43-1.91h-1.74l-.6-.5,1.21-1.1.83-.13.58.46,0,1.13-.24.15Zm-13.48-1.88,1.87,1.18.21,1-1-.05-.22.36.2.74.75.68.53-.2.31-.33,2,.66-.41,4.13-.34.63-.54.16-.66-.18-.72.18-1.55.64-2.58,1.38-3,.93-3.2-1.14-2.18-1-2.42-1.63L533.44,186l-.47-1.3-.14-2.87.27-.56,1.23-.84.41.09.43.6.57.47.61,0,.55-.75.68-.38,2.29-.6,5.55-.22,1.55.26,2.88,1.22Zm48.47-4.08,3.87,1.54,1.22.06,4.28-.38.66.17,3.68,2.61.71,1.81v1.37l.27.91.45.52,1.21,0,.83.2.64.64.82,2.39-.07.62-.6.85-.25,2.54.15.81-3.7-1.45-1-1.06-2.76-1.61L604.15,188l-2.47-1.26-.56-.74,0-.85-.79-.63-.4-.13-4.09-.31-2.35-.33-.29.32.12.54.73.86.19.56-.25.57-.47.12-3.66-.91-1.05-.08-1.63-.62-.75-.46-2.88.12-.32-.26.16-.39.69-.62,0-.67-.69-.49-.88-.13-1.92,1.21-1.47,1.37-.25.47-1,.86-2,.44-.47,0-.65-.27-.49-.42-1.76-2.61-1.47-1-.62-2.36-.69,0-.78.79-.62,1.51-.33,2.23-.46.64-.43.11-.93,1.67-.33,1.39-.16-.25-.25-1,.52-1.15.12-1.25-.87-1.35-.45-1.37,2.21-1.72,3.26-4,4,.1,2.83-.13,5,.18,2.13-.48.88-.71.36,0,.32.19.13.35,0,1.35.53.61.55.32,1.38-.29,2.31-1.47.33-.27.18-.7.48-.21,2.13-.15,1.78.54,2.45,1,.45.6Z"/><path id="ID-MU" class="cls-2" d="M533.86,169.62l-.51.08-.53-.3-.47-.59-.35-.72-.25-1.65-.89-1.29-.62-2.48.44-1.09.25-.4.36-.23.59.08.79.69,0,.43-.53,1.47,0,.61,2,4.47-.31.92Zm-11-11.5,3.77.32,1.31-.17.54-.32,3.94-.12,6.23.53-.25.38-1.41.6-4.7.53-8.89.55-2.06-1-.13-.22v-.83l.63-.73.59-.09.18.38.26.16Zm-8.31-1.81,1,.34,1.85-.5,3,.71.48,1,0,1.67-.38-.13-2.39-.08-1.8.27-.45.23-.14.58-.38.12-2.51-.82-1.18.27-1.64,1-2,.57-.87.18-2.05.06-1.33-2.3,0-1.07.7-2.15.48-.55,2.34-.46H509l5.54,1.12Zm50.59-4.71,4,2.32.53.45.29.51,0,.43-.36.76-.84.46-.53.06-6.1-.48-1.14.66-1.66.25-1.94-.89-.65-.53-.27-.44.28-1-.07-.5.22-1.05.37-.73.3-.34.32.25,2.91-1.8,1.61.31,2.71,1.34Zm-4.58-2.91-2.06.19-.67-.45v-.18l.86-.79.7-.24,1.8.72-.63.75Zm-5.13-8-.7.24-2-.46-.13-.19,0-.49.58-1.84.24-.24.42-.1.45.1L555,139l.49,1.76Zm4.38-8.13,1.94,2.51-.31.95-.7.67-.38.81.06.48.73,1.14.54.31.63-.38,1.23-.18,1.1.49.77,1-.06.51-1.34,1.1-1.06.29-1.36-.58-1.21-1.47-2.12.9-.44-.15-.34-.6-.61-2.67-1.72-1.82-.23-1,.53-2,.87-.22.72.64,1.19-.26.88-.71.69.2Zm-6.72,3.57L552,136.1l-.16-.44,0-3.52.65-.47,1.6-.17.4.46.38,1.67-.46,2-1.24.54ZM565,96l.47.17.33-.09.42.12,1,.87.27.5.43,3.34-.82,3-1.41,2.47-1.27,1-3.16,2.16-.39.59,0,1,.42.71,1.68,1.19.69.29.86-.13,1.26-1,.2-2.27.79-1.33,1.11-.85.88-.11.78.14.57-.29.49-1-.15-.47-.33-.27-.43,0-.21-.82,1-1.59,3.22-2.23,1.17-.49,1.84-.51,1.36-.2,1,0,.39.08.26.24-.47,7.82-.58.67L574.94,111l-2.54.74-1.49,1.48v.44l.42.85,1.08.93.87.5,4.13,1.49.75,0,.75.16.32,2.48-.17.88.66.48,1.87.5.78.64.53,1-.89-.66-.67-.25-4.69-1.1-1.57-1.32h-1.61l-1.38.2-1.14-.3-.59-.34-.34-.49-1.5-.26-2-.18-.63.38-.26.33-.47,2.33.48.38.3,2.37-.69,1.13,0,1.35,2.61,6.84,1,1.85.76,1,1.31,2.23,3.26,3.24-2.07-.11-.51-.17-.38-.36.13-.35L569.64,140l-1.49-.61-.54-.44-1.36-3-1.44-2.4-2.42-1.36-.95-1.46.64-4.83-.22-2.24-.55-2.46-.65-.36-.83-.88-.76-2.32-.07-1,.39-2,.73-.76.54-1.08-.08-.52-1.85-.55-.2-.3.26-1-.47-1.64-1.4.26-.13-.39.11-2.59,2.16-3.91.13-1-.15-.38.75-3.76,2.14-3.19,3.77-4,.66-.56h1.85L568,90.45l-1.61,2.44-.42.5-.47.15-.69.55-.09,1.56L565,96Zm10.85-4.18-1.92.09-1.91.47L571.5,91l-.32-2.51.1-1,1-1.92,1-1.18,1.5-1.46,2.22-1,.25,0,1.88,2.57.15.79L578,89l-.89,1.6-1,1.12-.24.14Z"/><path id="ID-NB" class="cls-2" d="M416.34,272l.12.32.67-.3,0,.16.29.34-.27.41-.33-.23-.14.32-.19.07-.15-.16-.15-.95.19-.11V272Zm-44.16-.61.05.4-.18.3-.07.7-.57.51L371,275l-1.6,2.38-.22.58-.77,1-.1.58.65,0,.5.35.37.08-.47.63-.62.2-.1-.18-.23,0-.45.3-.62,0,.47-1.48-.85.18-.4.38.1.53-.1,1-.4,0-.17-.35-1.17-.4-.37.13-1.12-.18-.27.23-.4-.1-.15-.75-.3,0-.87.18-.25.23-.4-.08-.27-.23-.22.05-.13.38-.3.08-.6-.43-.55-.65-.38.08-.45-.2h-.62l-.35-.4-.2-.63.4-.75.35-.08.07.38.77.43h.3l.57-.58.42-.05.45.25.27-.2v-.18l.32,0,.25-.25.15-1.61-.05-1.58-.55-.54-.17-.78.45-.65.82-.48.1-.5.3.1.05-.15,1-.43.5-.78.9-.7,1.65-.6,1.12.1.8.25.45.3,2.4.55,1.4,1.13.11.31Zm15.05-3.68,1.15-.07.44.25.09.21-1.26.92-.84,1.84-.7.95-1-.63.61-1.24-.19-.38h-.24l.1-.57-.09-.66.58-.47.74-.32.61.18Zm25.53,1.79h-.69l-.49-.4,0-.9.32-.55.51-.37.79.08.39.4.15.53-.26.7-.41.46-.27,0Zm-19.25-2.66,1.12-.13.4.2.45-.08,1.3.5.05.85.32,1,.52.55.22,0,.38,1,1.2.63.32,0,.38-.35.67-.2.3-.65,1.07-.88h.7l.28.28.87,0,1.55.48.52.85.08.53-.13,1.56-.4.6.08.43.62-.2.22-.4.13-.8-.27-.4.05-.43L407,271l.33-.4,1-.73h.42l.17.23,1-.08,1.6.4-.17.68.08.45.95,1.43.05.95-.54.25.06.37-.16.21.39.62,0,.79.28.18h.41l.4-.28.54-.1-.36-.56.39.05.25-.15.08-.35.32-.2.33.5-.13.68-.33.45.15,1.13-.65.53-.35-.1-.33.13-.9-.3-1.2.23-.52-.65-.6-.4-.47.2-.15.35-.25,0-.8-.25-.62.05-.17-.18-.38.2-.2.38-.53.25.1.13.52.23,2.75,0,.8.45.17.45-.4.33-1.37.18-.47-.13-.77-.5-.85-.2-1.22.23-2.22,1-1.07.25-1.25-.48-.33-.73.11-.64.65-.8.08-.35-.15-.28.25-.43-.17-.48-.28-.4h-.15l-.1.18.07.55.15.1-.13.28-.3.2-.42-.13-.38.58-.65.3-.13.53-.47.11-1.37,1.38-.92.38-.82-.6h-.3l-.27.23-.73,0-.32.6-.5.25h-.35l-1.07.63-.62-.23-.18-.2v-.3l-.65.2-.15.28-.52,0-.3-.25h-.3l-.47.13-2.4,1.36-2.37.8-1.3.08-1.65-.55-1,0-1,1-1.67.4-1-.35-.32-.4-.65-.13-.37.25-1.92-.73-.79-.48-.3-.5.23-.3,0-.38-.13-.23.17-.85.33,0,.22-.23-.08-.4.77-.15-.15-.55-.65-1,.27-.23-.42-1,.67-1.41.47-.13.1-.2-.22-.83.47.33,1.58-.25,2.32-1.58.67-.88.5-.15h.3l1,.6.23-.05,2.95,1.2.2-.48.45-.4.62-.23.45.15,1.17-.13.25.28.4,0,.47.48.62,0,.32.95-.15.25-.62.18-.08.18.18.25.47.23.9-.08-.32-1.3.4-.13.37.95.55,0,.05.45-.8.08.32.38-.1.6.32,1.21.3.45,1.5-.3,1.3.55h.35l1.47-1.21,1.37-.3.67.08.37.35,1.57-.63-.2-.75-.38-.1-.13-.35-.57-.15-.15.25-.35-.58-.62-.38-.3-.5-.37.1-.5-.73-1.67.2L391,271.21l-.8-1-.92-.83-.17-.35.32-1,1.15-.83.7.05,1.7-.8.55.38Z"/><path id="ID-NT" class="cls-2" d="M487.55,308.46l.71-.08.12.16-1.19,1.4-.37.13.13.18,1,.14.21.82-.48.59-.94,0-.59.29-.29.36-.77.29-.18.34.07.36-.37.86-.26-.09-.37.24-.48-.33-.39,0-.5.28-.35.49-1.76.09-.57.41.34.34-.29.53h-.38l-.12-.3-.46,0-.08-.16-.6.15-.12.37-.5-.3-.09-.49.14-.8-.46-.88.13-.37.85-.37.65,0,.63-.33.73.11.37-.22.78-.09,1.41-1.37.51,0,.48-.32.22-.65.44,0-.07-.4.83-.88,1.73-.78.2-.83.61.63-.33.24.07.24Zm-24.85-1,.71.12.16.18-.19,1.32-.3.35-.58.18-.57.6-.74.46-.61.1-.51-.25-1,.09-1.1-.67,2.61-1.46.22-.83.41-.25.67-.22.81.28Zm26.17-4.8.53-.11.09.45-.78.26-.12.38-.4.22H488v-.33l-.44,0v.41l.28.14.14.34-.09.29.13.34-.43-.06.11.28.2.07-.11.42h-.4l-.14-.47-.19-.05-.38.07-.25.48-.15,0-.25-.44.07-.53-.15-.26.43-.58.52-.27.52-.87.15-.58,1-.39.22.33.07.5Zm-59.68-13.46.37.25.47.87.42.37.49.15,1-.22.27.12.39.6.12.47.07,1.21.39.5.69,0,.37.45h.2l.71-.4,1.72-.42.47.55.07.42,1.7.87.3.87,1.18,2.21,1,.35,1.06.62.49.7.34,1.07-.22.8-.69.6-.47.07-.62.94-.86.57-.62,0-.42.35-1-.2-.49.12-.91.47-.07.35-.25.27-.32,0-.79-.45-.57-.55-1.45.05-.71-.12-.42.1-1.11-.5-.74-.72-.37-.12-.74-.9-.44-.1-.15-.15.17-.35-.25-.62-1-1.19-.67-.2-.07-.32h-.47l0-.47-1.28-.2-.27.07-.3-.45-1.22-.81-.25-.3-.25-.75h-.32l-.31.23-.22-.37-.49-.2-1.21-.17-.84-.3-.94.4-.27.5-1-.52-.37.1-.22-.35-1.55-.12-.57.1-.12-.15-2-.67-.42-.3-1-1.37-.67-.5-.32-.55.64-1.09.57-.55.67-.4,1.45-.35,1.13-.67.29.07.25.27,1-.5.49-.07.76.32h1.06l.91-.3,1.26.32.79-.52,1,0,.74.52,1,.22.34-.07.59.25.59-.55,1.18-.72.57-.84.2-.05.54,1,.9,1Zm85.11-7.52.2.08-.3.63v.52l.23.36.51.25h.45l.67-.52.61-.17.32-.34.28-.63.41.45.26.05.61.51,0,.85-.26.89.15.75-.69.08-.64.38,0,.14-.72-.56-1,0-.28.57,0,.39.26,1.08,1,.67,0,.58.48.56.16,1.19h0l-.91.65-.77.86-.17,1.64-.53.56-1.11.46-.51.45-1.46,1.86-.61,1-.67.25-.8.79-1.89,1.1-.65,1.39-1.42,1.07-.57.26h-.48l-3.42-.29-.48.09-.46.19-.51.51-.16.44-.78.47-.28.37-1,.13-1.19.54-.25.31-1.29.4h-.77l-.9.22-.54-.26H492l-.71.35-.27-.35-1-.38-1.36.51,0-.53.23-.19.38-.82-.13-.69.58-.22.07-.66,1.49-.63.61,0,.55-.38,1-.38.49-.86-.2-.28-1-.35-.3.12-.59-.1-.42.18-.23.35-.3-.09-.12-.19v-1.81l.36-.47.28-.1.33.09.4-.48.11-1.07-.45-.66.49-.2.19-.35,0-.64-.23-1.16,1.2-1.24.77-.31.15-.6.3-.26.19,0,.48-.39.62-.2.33-.6.54-.18.09-.34.39-.28.19-.43.33-.27.87-.06h0l.88,1.19.46,0,.26.32.41-.11.2-.48.7-.42.21,0,.83.81.25.61-.14.86,1.21-.28.23-.5-.22-.45.55-.68-.12-.25.11-.3.17,0,.31-.4.49-.07.14-.43.3-.15-.12-.56.2-.43,0-.59.19-.24,0-.31h0l.45.12.85-.09.88-.31L510,284l.08-.56.79-.09,1-.7,1.07-.24.52-.45.87-.3Zm-88.95-2.35-.42,0V279l.26-.27.25.14-.08.42Zm-2.21-.28-.05.15-.6-.24.44-.22Zm-1.1-2.63-.24.15-.15-.13-.31.05-.15.28.27.28h-.2l-.41-.41,1.06-.68.15.07Zm.7-.78H423v.61l.19.69.1-.21.47,0,0-.24-.33-.35.4.15.17-.46.37.12.35-.19h.51l.23.18-.12.58-.7.13-.12.38-.22.17h-.19l0-.23h-.2l-.23.37-.08.37.48.18.15.3-.05.28-.6.67h-.27l0-.34-.26-.26-.74.31-.21-.67.27-.86.24-.12.41.11-.15-.5-.23.21-.15-.08.18-.11,0-.36-.43-.8.32-.13.18.14ZM470,272.44l.58.33.11-.2.11.18-.14.53-.43.36-.57-.16-.36-.44.05-.52.65-.08Zm-50.22.41v.47l.18.11,1.15.21.38-.19,0,.65.15.26-.14,0-.22-.3-.09.19.17.26v.69l.22.1-.91.13V275l-.37-.08,0,.29-.34.33-.37,0,.18.35.25,0,.2-.23.05.13L420,276l0,.15-.13.21-.39-.06-.33.46.38.45-.14.37.41.23-.52.25-.61-.48-.52.22.09-.5.39-.33.09-.61,0-.21-.36-.28-.2.09.24-.5-.25-.25.28-.48.2.05.38-.2v-.39l.19,0,0-.23-.32-.13.42-.3,0-.2-.2-.1-.05-.47.5.12.06-.44.29.44Zm63.8-.41.08.32-.33.28-1.33.5-.46,0-.36-.21-.72.61-.78,1.45-.46.27-.41,0-.28-.47.25-1,1.08-.58.06-.5.43-.44.39,0,.39.23.32-.23h1.37l.39-.21.37.09Zm-24.91-2.28.2,0,.22.49-.1.34-.26.15-.77-.25-.17.13-.08-.1.19-.14.22-.6.31-.14.24.09Zm25.8-1,.13.09.21-.26.22,0,.36.31.62,0,.59.32-.29.47-.23.08.06,1-.28.6-1,.12-1.05-.18-1.87.44-.41-.16-.77.15-.05-.72.61-1.06,1.2-.69.68-.59.66.09.43-.26.14,0v.18Zm18.17,2-.84,1.05-.15,1.07-1.34,1.24-1,.15-.23-.16.2-.81-.55-1.3-.8,0-.68.5V273l-.56-.16v-.21l.48-.54.33-1,1.63-.93.51.3,0,.67.17.15.39-.11.64-.67L501,270l.66-.38.72-1.22.42-.35h.64l.23.19.09.39-.44.82.08,1-.19.35-.59.3Zm-7.27-2.47,1,.12.44.63-1.47.55-.63-.16L494,270l-.38.48-.07.47-.59.6-.07.32-.4.48-.36,0,0-.25L492,272h-.43l-.54.58-.47.24-.15.38.38.48.11.5-.53.62-.58,0-.28-.7-.21-.09-.72.32-.47.73-.39.11-.78-.31-.2-.4-.52-.28-.41.35-.88-.13-.19.24-.35-.3,0-.42h.38l1.28-1.07.43-.85.82-.27.21-.23.78-.13.59-.42-.74-.75-.42-.07-1,.17.6-.73.45-.2.28.24.64.08.48-.48.58-.11.63.09.12.09-.24.25-.12.47-.75.86,0,.27.94.32.71-.56v-.32l-.31-.15V270h.5l-.07.35.08.16.58-.5-.17-.7-.38-.13v-.32l.7-.09.23.12,0,.4.71.15.13-.15-.12-.46,1.52-.93,1,.75ZM507,267.1l1.44.1-.18.33,0,.69.25.16.83-.5,1.68-.32,1.33.26,1.46,0,.77-.36.84.18.64-.15.93.05.7,1.39-.08,1.14.12.51-.38.33-.92.25-3,.12-1.57.61-1.08.07-1.36-.16-1.07.69-.88.2-.26-.31-.56-.13-1.21.71-.16,0-.07-.31-.88.1-.39-.38,0-.35.1-.31,1-1.14,0-.38.41-.13.79-.64.64-.08.54-.33-.16-.13-.66.12-1.59.79.08-.48-.17-.38,1-1.29.35-.37.76-.17Zm-27.53-.26.78.51,0,.44-.2.56.28.33.05.6.68.69,0,.41-.71.68-.29.05-.67-.38-.21.07-.58.85.23.57-.12.6-.46.07-.52-.36-.62-.17-.16.15.11.87.88.93.05.6-.21.37-.88.34h-.84L476,276l-.21-.16H475l-.84.52-.27-.08-.24.2-.48.07-.58.74-2,.65-.76.08-.53-.2-1.08.26-.71-.23-.69.12-.35-.32-1.05,0-.44.13-.3.43-.22,0-.5.5-1.89.67-1,0-.22.3-1.19.48-.87-.07-.52-.41-.52-.07-.19.14.06.45-.15.35-.25.07-.31-.14.32-1-.6-.24-.49-.4-.74.15-2.52-.32-.24,0-.17.6.06.85-.43.42-.57.17-.71-.39-1.36.14-.29-.15-1.58.6-.92.61-.43,0-1.47-.49-.92-.75-.28-.8-.24-.09-.81.18-.34.75-.46.12-1-.39-.81-.06-.89-.9-2.6,0-.78.14-.24-.13-1.23.63-.3-.18-.29.16-1.15-.3-.81-.84-.33-.05-2.23.61-.87.12-.42-.09-.36.38V280l-.21.07-.42-.13.13-.27-.16-.09v-.46l-.8-.07-.15-.31-.52-.44-.06-.37v-.25l.09-.35-.1-.23.23-.46v-1.12l-.22-.1.09-.33.48-.52-.05-.15.5-.17.32-.37.08-.55-.34-.44-.07-.39.42,0,0,.58.3.06.11.17.48-.32H428l.4-.42.5.47.24-.36-.25-.14,0-.24.35-.56.51,0,.24-.17h.21l.14.43.22.18-.18.36.38,0,.21-.39v-1l.63.29.25-.43H432l.33-.74.24,0,.49-.15.24-.25.49,0,.71,0,.78.2.71-.25.07-.47.19-.17.46.38v.33l.4.24.85-.33.51.29h.72l.17-.22-.24-.27.11-.2.75.35.73.89.49,0,.43.38,1.17-.15.9.29h1.15l.53-.18.5.07,0,.35.13.13.5,0v.36l.21.39.71-.1.65.28.63,0,.38.26.43-.08.75.46.78.1.49.21.75,1.21,1.22.56.85-.45.25.31.33.13.21.53.51-.6.61-.2-.25-.22v-.35l.17-.06.65.42-.22-.43.1-.82.21-.22.44.11,0,.36.4-.11.24.32.86-.31.89.09.28.19.51-.2.29-.31.28.22.89,0,.28-.17.54-.74-.06.5.51-.44.49-.12.23.06-.27.81.09.67.92-.11.29.36.31-.25,1,.45,1.21,1.21,1.15.28.6-.38.53-.1,1.5-.16.42.1.76-1.05,0-.39-.61-.54.22-.34,1.12-.32.3-.47.32-.09.14-.55.27.07.29-.27.53.15,1.2-.54.55.1.76-1.11,1.11-.12.36-.23.36-1.12.43-.26-.61-.34h-.63l-.94.31-.41.68-1-.19,0-.13.47-.4.42-.74v-.77l.82-.21.62-.53,1.08.67Z"/><path id="ID-PA" class="cls-2" d="M755.56,272.16l-2.51-.14-2.81-.49-.36-.18-.21-.57.08-.21,2.73-2.39,1.71-.48.23.05.27.88,1.28,2.71,0,.34-.43.48Zm-4.89-2.73-2.6,2.13-1.27.57-1.38.28-.47-.05-.39-.32-.65-.18-6-.4-2.85.69-.51.35-.5.06-.24-.42.06-.52,1.62-4.23,3.07-5.93,2-3,.53-.57,3-2.1,2.44-1,4.78-.89,2.12.11.79.22.37.33,1.08,1.81.59.62,1.32.25.62,1-1,2.7L756,262.89l-.54,2.73-.57.73-1.15,1.06-2,.44-1.12,1.58Zm.44-26.51.61.5,1.3.24.82,1.21-1,.62-.75-.28-1.16-1.53-.13-.51.3-.25ZM710.72,156.1l2.86.57,6,.44,1.59.67.09.16-.43.46-3.22.55-2.54.83-5.61-.5-4-1-.89-.65-1-.45-2.55-.77-1-.2-1.13.08-2.09-.34-1.08-1.28.93-.28,1.17.38,11.08.79,1.93.5Zm44.47,4.67h1.2l2,.66,6.25,2.86,6.46,3.36,1.79.26,2.55-.31,1.28-.61,1,.06.17.54.69.85,1.91.88.92-.17.1-.27,1.66,0,2.67.39,1.57.56.34.26.12.41-.25.63-.47.49L787,172l.46.38,1.67-.47,2.48-.1.61.05.06.12V236.1l-.68.07-.67,2,.4.51-.07.34-.92,1.75-.53.53-.07.81.21,1.87.55,1.2.81.83.55.05.43-.23,0,38.79-1.09-.68-1.17-.32-.6-.42L788,281.32l-2.57-2.39-1.82-3-4.75-4.06-3.07-2.25-1.15-1.31-.18-.29.12-.68,1.38-1.15,1.25-2.29.24-.93-1.63.71-.28,1.17.05,1.05-1.29.74-.86.31H769.9l-1.59.19-1.58.91-1.92.46-.9.05-.7-.08-.87-.55-1-1.4-2.32.88-1.91,1.4-.6,1.29-.5.06-1.07-2.05-.2-.87,1.17-1.61.12-2.16.2-.22,1.2-.57.24-.82,0-1,.89-2.23.66-.7,0-.51-.44-.44-1.08-.4-1.25-.87-.63-1.45-.61-.75-1.71-1.13-1.61-.82-.15-.4.21-.14,4.5.17,1,.63,1,.22,2.17-.22.81-1.32-.81.36-.25.34-2.06.19-3.37-1-1.71-.78L750.32,247l-.31-.4,0-.55.61-.49.8,0,1,.33.73,0,1.1-.71L756,245l1.28.44,1.12,1.12,1,.64.51.14.86-.19-1-.23-.7-.37-1.24-1.12-.53-.3-.85-.33-1-.12L752,242.83l-.26-1.09.66-.19-.49-.66-3.38-3.24-.76-1-.51-1.14-.32-1.1,0-.85-.48-1.44-1.2-2.22,0-2-1.48-.41-.76-.66.41-.6,2.77-1.35-.18-.15h-.47l-1.61.25-1,.57-1.35.38-.25-.15-.32-1.8.36-3.26-.14-.5-.5.88-1.52-.57-3-1.94-.49-.59-1.51-1-.94-.25-.58-.36-.08-.2.4-.36h-1.3L730,215l-1.81-1.31-.62-.74-1,.44-3.58-1-3.13-.41-.41-.42-2.9-1.34-4.7-2.5-1.76,0-3.86-1.56-.47-.42-.62-.92-.76-.31-2.2-.11-1.33.16-5.17-1.12-1.66.14-1.68.38-1-.34-3.7-2.11-1.63-.69h0l1.64-2.37,1.06-.81.65-1.38,1.06-1.63,2.29-2.84-.9-.41h-.49l-1.22-.57-2.86-.89-3-1.22-6.45-1.87-2-1-1.39-.41,1.14-2.52,1-1.22,1.63-1,.24-.81v-1.14l1.55-.81,2.48-2.27h0l.61,2.49.47.36.71-.15.67-.48.09-.5.31-.37.45,0,.12.65-.18,1.21-.49.45-.17,1.43,1.11,2.15,2.05,1.51,2.13.55,3.73.43,2.22-.42,1-.47.67-.64.26-.6,0-.4.64-.78.49-.34,1.37-.4.92-.73,0-.26-.42-.32.4-.51L704,178.5l.51-.79.32-2.73,1.23-1.46.4-.05,2.31-1.08,1.25-1,.43-.75,1.09-2.85.05-.66-.19-.79.39-.49.91-.63,1.27-.1.87,0,.06.29.18.12,1,.24,1.14.1,1.49-.13,1.46-.83,2.65-1.17,1.31-.41.8.11,1.3-.22.78-.52,0-.29-.64-1.8-.63-.29-.91-1,.19-1.23,1.22-.64,1.25-.31,1.4-.61,2.5-1.32.44-.53,1.55-.75,4.17-1.47.52,0,1,.28.81.92,1.43,1.1,6.1,2.16,4.19,1,1.53,1,.76,1,1,.82.38.07ZM687,146.64h-1L684.9,145l.19-1,.5-.67.81-.05.73.35,1.08,1.11-.08,1-.49.69Zm9.63-8,1.79,0,1.52.24,1.62,1.07,1-.75.54-.07.66.38,3,2.55,2.23,3.23,1.25-.22,1.72.77.36.36-.81.72-1.29.72-1.85.4-1,0-.87-.65-.48-.15-1,.05-.75.27-.59-.12-.88-.87-.78-3.16,0-.92-.57-1.23-.5-.05-1.81.86-1.79-1.52-.66-.15.08.54-.42-.16-1-.95-.62-1.33L695,138l1.65.61Z"/><path id="ID-PB" class="cls-2" d="M663.64,200.15l.76.9-5-2.24-.16-1.15.51.19,1.24,1,2.65,1.35Zm-58.47-37.6-1.23,0-3.61-1.07-3-1.57-.33-.42.58-.54,3.53-1.26,1.42-.72,5.41-1,.08.52,1.33,2,.06,2.57-.94.62Zm-4.51-14.67-1.71.55-1.58-.54.06-.33.37-.34,1.8-.5,1.55.52-.49.64Zm16.75-5.48.59.77,1.09-.15.66-.26.69,1-.05,1.91-.58,2.67-.72,1.64-.21.26-.4.12-1.5-.28-2-1.69-.35-1-.75-1.06.35-.54-.27-.73-.38-.64-.56-.21-.07-.22.07-.25.36-.2,3.39-1.11Zm.31-1.73-.45.77-1.64.7-2.22.47-1.46.15-1.84-.1-.59.1L609,143l-.24-.08.88-1,.66-.52,4.17-.12,1.33-.3.63-.7h.79l.53.36Zm-5.38-4.29-2.44-.27-.16-1,.42-.31,2.32-.69.8.28.57.45,0,.26-.45.75-1.08.5ZM663.69,140l3,.05.08-.56,3.91.1,2.24,1.81-1.41,2.26,1.69,3.19,1.35,1.19,1.31,2.39-.79.87-.24,2.51-2.3,2.07.59,3.54.39.86-.21,2,.46,4.6,1.09,1.87.53.18,1.15,1.14,2.47,6.13.55,0,.54-.46-.9-3.57-.05-1.18.25-.58.94-1,.53.11,1.23.78.26.91.1,4.32h0L680,177.91l-1.55.81v1.14l-.24.81-1.63,1-1,1.22-1.14,2.52,1.39.41,2,1,6.45,1.87,3,1.22,2.86.89,1.22.57h.49l.9.41-2.29,2.84-1.06,1.63-.65,1.38-1.06.81-1.64,2.37h0l-1.16-.49L682.22,198l-.08-.22.73-2.82.43-.22,2.5.31,1,.45.32,0,.65-.48,0-.17-1.16-.2-3.94-.25-1,.74-.34.9-1.31.28-.94-1.35-.6-.59-1.16-.28-.45,1.63-.64.33-1.57-.88-.51-.44-.35-.72.06-.53.41-.3,0-.28-.29-.62-.59-.59-.25-.11-1.74.91-1.75-.94-1.6-2.78-.56.28-.07.16.14,1-.44.1L666,189.5l-1.1-2.17-.14-.56.08-.22.91-.58.11-.24,0-1.06-.25-1.28.44-1.45,1.21-1,1.34-.86,0-1.29-.58-.79-1.69,1.53L665.15,181l-.32,2.64,0,2.08-.65.13-1.06.72.39.37.41.91-.07.58-1.68,1.3-1.54,1.53-.07.3.2.9.6.52.17.64-2.39,2.51-1.3,1.06-.65.06-2.62-.3-.34.19-.65.76-1.36-.34L651.14,196l-.55-1.27.2-.16-.16-.61-1.16-3,.56-1.47,1.83-.66.53-.41.12-.27-.77-1.44-.27-.08-.29.15-.47-.38-.37-1.4.35-.85-.05-.29-.39-.5-.52-.13-.6.24,0,.9-.15.15-.23.06-.79-.37-1.16-1.56-.08-.85-.62-1.18-1.58-1.24-2.59-1.61-.74-.21h-1.44l-1.9.49-2.14-3.1.18-.21,3-1.4,1.2-.25,1.91.06,3.34.31,1.06.29,1.2.75.41.53,1,.45L651,174l3-4,1.51-.87.9-.28,1.52-.21,1.1.53,1.32,1.27,2.08.76.71,0,1-.43.76.09.51.73-.1.91.11,1.36.25-.34L666,171l-.1-.61.24-.05.36.17,1.08,2.21.22.13.07-2-.29-.8-.39-.24,1-1,1.28-.61.71-1,0-1.62-.2-.42-.4,1.05-1.47.49-.31,0-.56-.72.12-.21,2-.79.58-.48-.2-1.15-1,.17-4,2.12-1.78.15-1.81-.12-.66-.35-1.78-.31-1.67.22-4.11,1.28-1.09-.07-1.44-.62-.6.17-1.61.87-.88-.43-.19-.22-.21-.79-.41-.53-.3-.07-2.05.52-1.09.68-1,.22-.67-.08-2.47-2-.84-.32-1.14-.82-1.2-2-.7-1.58-.07-1.12.76-.83-.25-.93-1.28-1.13-2.76-1-.33-.38,0-.27-2-.92-5.48-1.83.17.4.82.54,0,.38-.78.65-1.38.5-.52-.85-1.15-.45-1.07.06-1.48-.9.83-1.17.41-1,.42-.54,2.06-.42,1.21-2.1.64-3.07-.53-1.64L628,139.7l.37.05.06.21.68.22,3.41-.63,1.7-.55.78-1.22,3.25-2.69,1.23-.77,1.6-.65,2.84-.68,4.83.39,1.84.94,5.11,2,1,.09,3.48,3,1,.29,2.54.31ZM617,127.41l2.85.81,1.68.16,2.77,1.58.23.6.15,1.22-.44.95-.71,1-1.49-.83-1.1-.1-1.23.47-1,.05-.53-.32L617,131.4l-1.46-.58-1.4-2.07-.37-.29-1.29.15.22.83,1.75,1.85,1.69.78,1,.16.59.36.44.74-.47.76-1.17.55-1.54.21-.57-.2-.3-.4-.5-2-1.58.35-.8.73-.53-1.92-1.45.36-1.19-.14-2-.68-.42-.28.35-.22.42.21,2.11.18.75-.41-.48-.82-1.07,0,.11.62-.85-.19-.35-.64.13-.56,1.32-.32h1.46l3.65-.59.75-.29.36.26.84-.07-.29-.27.56-.34.71-.07.92.19Zm-22.88,3.34-.32.15-.86-1-3.37-3.33,0-.2.25,0,.58.38,3.54,2.85.39.68,0,.31-.22.23Z"/><path id="ID-RI" class="cls-2" d="M138,118.33l-.59-.17-.31-.8.47-1.73.52-.54.51-.12.81.67.38.56.13,1.39-.4.36-1.52.38Zm-9.7-8.36.39.06,1.17-.4.79.06,2.84,1.65,1.82,1.37.21.32.18.77-.25,1-.55.3-1.23-1.23-1.06-.49-3.49-.1-1.69.45-.53,0-1.1-.55L124.5,112l.53-.8.86-.12.19-.16v-.74l-.52-1.13,0-1,.29-.42.61-.11.57.26,1,1.34-.17.47Zm7.14-.75,2.22,2.51.06.52-.35.39-.62.15-.49-.1L133.8,111l-3.16-1.62-.59-.09-.6.19-.6-.53,1-1.65.51-.2H131l1.46.43,1.54.72,1.4,1Zm-11.06,1.94h-.42l-1.53-1.44-.36-.35-.43-.81-.65-3.48,0-1.92.11-.22.83-.18.52.13,3,2.65.28.46,0,.33-.56,1.71.06,1.07.35,1.12-.06.28Zm1.69-9,.17,2.88-.24.35-.52-.24-2.64-2.52-.81-.26-2-.16-.82-.36-1-.93-.88-1.49.27-.22.81,0,1.85.75,2.93.4,1.78.47.75.43Zm-15.46-4.5-.79,0-1.1-.31-.38-.21-.39-.5L107,94.14l.08-1.32.19-.69.55-.52,3.47-1,.65.18.34.31,1.26,1.7,0,.89-.76,1V96l-.24.47-1.28,1-.73.2ZM93.67,90.61l.82-.13,1,.59.75.15.51-.39-1.14-.71-.32-.63-.08-.78.2-.39,1-.55,2.4-.27,2.46.31-.12.51.35.77,3.45,2.31.74.79.26.81,0,1.34.72,2.11.68,1.09,2.34,1.09.75.06,1.72-.42,1.21.33,4.51,3.78,2,1.07,1.09,3.06-.19,1.73.4,1.37.43.63,3.29,3.1.69.5,1.38.63.52.07,2.4-.22,2.61.16.69.26.48.37,2.56,3.08.18.53-.15.67L127.36,124l-.71-.37-.73-.82h-1l1.9,1.34.82.24,1.24-1.12,4.24-.78,4.47-2.52.27-.2.72-1.14,2.26-.84.56.06,1.16.56,5,3.76.26.56,1,4.33-.63.23-3,.18-.28.39-.11.91-2.66,1.83.17.28.32,0,.68-.57.68-.16.58.05,0,.16-.37.47,1.63.21.05.21,1.63.52.89,1.31-.63-.1-.89.16-1.68.73-.21.21.16.26-.3.66-2.63,1.75-.38,2.14.1.42,1,1h0l-1.18.12-.84.47-.39-.31-3.61-.62-.84.21-1.18-.08-.86,1.35-.84,1-2.1,1.5-.1.35-.47.45-.53.86-.69.08-.51.6-.29.06-.61-.43-.67.1-.81-.33-.77,0-.47-.76-1.22-.12,0-.64-1-.51-.29-.76-.57,0-.86.49-.39,0-.2-.14v-.31l-.41-.35-.39,0-.37.33-.92-.45-.41.16-.45-.33-.39-.06-.47.27-.12.35-.24-.21-.59.29-.18.62-.81.18,0,.31-.6-.1h0l-.21-.13h-.89l-.5-.32-1.27-.35,0-.29-.35-.18-.65-.88-1.12-.68-.44,0-.24-.35-1.45-.88-.09-.56-.53-.12-.38-.29.18-.32-.09-.09-1.71-.61-.44-.56-.65-.26-.12-.41-1.12-.47-.35-.41-.24.06-.3-.15-.71-1.53.18-.38,0-.68-.8-.59-.43-.07-.86.26-.09.15.15.09-.27.5-.56-.44-.47,0-.21-.32-.06-.62-.53-.29-.33-.5h0l-.12-.35.12-.44h0l-.53-.91,0-.24.18-.18-.27-.88,0-.35.47-.38.21,0,.33.47.59-1,.09-.85-.38-.94v-.48l.27-.85-.38-1-.18-.24-.35-.09-.65.23-1.09.94-.24.38-1.09,0-2.84-.79-.77-1.73-.38-.26-.38-.15-.92.47h-.27l-.15-.44v-1.15l-1.27-2.64.09-.94.83-1.29-.47-.73-1.06-.43h0l-.87-1,.28-.2-.12-.23.12-.9-.43,0-.43-.47v-.23l.75,0,.24-.27.16-.63-.35-1-.39-.16,0-.43.55-.31.63-.08-.08-.31-.59-.43-.28-.51-.2-1.59-.51-.94-.24,0-.24-.24,0-.39.39-.27,3-.16v-.35l.47-.12.59.12.28-.16,0-.39h.79l.83-.71.12-.47-.24-.23.08-.39.43-.71.08-.47-.16-.31.12-.39-.08-.31L90,98.09l0-.43.27-.28-.24-.78-1.89-.35-.28-.31v-.39l.47-1.25.24-3,.51-1.72L89,88.66l-.71-1.57-.16-1.33,0-.67.35-1.25.82,2.5.57,1.2,1.34,1.39,1.53,1.19.92.49Z"/><path id="ID-SA" class="cls-2" d="M517.81,102.65l-.89,1.24-.77,2.53-1,1.83-1.54,2.12-1.32.57-1.52,1.14-1.2,1.17L508,115.8l-.41,1.12-1.93,2.33-2.09,1.07-1.29.31h-1l-4.19.65-2.95.7-2.24.26-1-.31-2.22,0h0l.27-1,.82-1.43-.08-1,.16-1.08-.31-.85L489,116l-2-.35-1.21-.89-.62-.54-.27-.85,0-.46-.7-.7-.86-.23-.54-.39-.2-.81h0l2.33-.11,2.29.48,3,1,.31,0,.59-.34,3.84.91,1.58-.06,1.24-.73,5.33-2.36.42-.53.83-2.15,1-.4,2.68.17.23-.13.42-.58v-.61l-.54-.32-.63,0-.26-.45,0-.36.46-.78,1.13-.82,1,.36.71,0,2-1.14.21-.54-.54-1,0-.29,2.62-2,1.07-.09,1.71.49.68.55-.17.54.09.48,1.44,1.22-.32.85-.6.35-.65.06Zm4.74-20.79-.21.07-.47-.2-.38-1.48.45-1.18.53-.24.55.33.12.26-.08.34-.75.85,0,.45.38.56-.17.24Zm3-17-.22.56,1,1.29.17-.11.42.26.12,1.26-.64,1-.2-.14-.17.08-.09.62-.16-.11,0-.31-.33-.56-.5,0-.22-.29-.41-.12-.06-.29-.28,0-.3-.7,0-.47.47-1-.08-.16h-.27l-.11-.39.33-.12L524,65l-.34.08-1.17-.73-.22-.36.09-.92.73-.26,1,.19ZM545,61.73l-.29.05-.21-.3-1.27-2.8-.13-1,.27,0,.41.3,1.39,1.87.06.46Zm.85-3.22-1.08-.15-.16-1.28.72-.61,1-1.85v-.41l-.21-.19-1-.24-.17-.16-.29-1,0-.58.54-2.47.35-.63,1.27.23.78.7,1,3.62-.78,1.17-1.28,3.23-.59.58Z"/><path id="ID-SB" class="cls-2" d="M90.9,179.86l0,.6.27.53-.07.2-1,.13-.47.23L91,184.21l0,.23-.4.27-.3-.17-.3-.66-.2,0-.43-.33.2-.17-.2-.33-.77-.27.17-.7-.2-.46.07-.6-.6-.8-.6.07-.67-.8-.67-1.23,0-.23.3-.6-.47-1.92.07-.3,1-.37,1.37,1.73.9.53,1.2,1.53.5.37-.07.83Zm-5.5-4.42,0,.4h-1l-.07.17-.53-.46-.17.5-.23.13-.43-.37.13-.33-.37-.4.3-1v-.93l-.37-.8,0-.56-.47-.3.27-.33-.1-.8.23-.33.5.1.73,1,1,.63.3.43.7.3.47,1.06.37.4-.17.76-.63.23-.49.43Zm-7.48-11.39.67,1.36.5.53.07.37.6.33.43.7.33.73v.23l-.17.13-.2-.07,0-.36-.2-.3-.23.2h-.37l-.23-.5h-.8l-1-.83-.5-.2-.87.1-.27-.83-.27-.13-.73-1.23,0-.23.23-.17.4.23.07-.13-.3-.4-.13-.9.17-.36.53-.43h.6L77.67,163Zm-13.5-20.57.33,1-.2.07-.2-.5-.13.1.4,1.29,1,.8.1.76.63.76,0,.4.43.7-.13.3.57.66,0,.63,1,1,.13.33.1.7-.27-.23-.33,0,.4.53.73.27.1.27-.1.43.4,1,.67-.23.47.66.1,1.46-.33.5-.6-1.16-.13,0,.2,1,.27.56-.43.4-.37-.3-.77,0-.43.13-.07.3-.57.1-4.1-2.22-.2-.56-.6-.53.2-.1v-.23l-.63-1.23-2.67-3.94-.23-.66-.4-.23-.17-.3-.1-.43.37-.4.8-2.15,0-1.06.63-.66.4-.1.43.2,1.13-.1.8-.3.67-.5.23,0,.41.79Zm16.52-31.94.39.35.67-.12.32.71,1.3.47.28.35L86,114l-.2-.15h0l1.06.43.47.73-.83,1.29-.09.94,1.27,2.64V121l.15.44h.27l.92-.47.38.15.38.26.77,1.73,2.84.79,1.09,0,.24-.38,1.09-.94.65-.23.35.09.18.24.38,1-.27.85v.48l.38.94-.09.85-.59,1-.33-.47-.21,0-.47.38,0,.35.27.88-.18.18,0,.24.53.91h0l-.12.29.12.5h0l.33.5.53.29.06.62.21.32.47,0,.56.44.27-.5-.15-.09.09-.15.86-.26.38.06.8.59,0,.68-.18.38.71,1.53.3.15.24-.06.35.41,1.12.47.12.41.65.26.44.56,1.71.61.09.09-.18.32.38.29.53.12.09.56,1.45.88.24.35.44,0,1.12.68.65.88.35.18,0,.29,1.27.35.5.32h.89l.24.15h0l0,1,.15.12-.12.76.53.44.35-.26.12.09-.3.85-.83,1-.62.15-.33.24-.62,0-.62.62.06.56.35.82v.23l-.41.47v.21l.41.35v.23l-.62,1.11-2,1.23-1.18,1.79-1,.26-.38-.35-.62.18-.56,0-.53.26-1.06,0-.56.35-.68-.71-.15,0-.18.35-.5-.35-.18,0,.21,3.64.15.41.47.5.15.5.35.41.71.32.38.73.56,1.68.18,1.65h0l-.24.53h0l-.8,1-.74.56-1.09.44-.41.44-1.61,1.11h0l-.28-.54-2-2.21-.4-1.59L97,164.31l0-.46.74-.67.3-.59v-1.18l-.45-1.67-2-2.86-1.44-1.76-.9-2.38-.76-.78.36-.56,0-.6-.43-1-.4-.27-.75-.1-.8-.75-.4.29-.38-.11.13-.62.44.07-.29-.67-.38-.11-.55-.84,0-.29.33,0-.33-.73.3-.35V145l-.55-1.55-.26-1.39-.28-.54-.44-.62-2.83-2.81-.72-1.41-.66-.87-2.3-1.89v-.23L80.9,133l-1.13-.68-.38-.84v-.53l-.69-1.17-.22-.14.22-.66-.14-.36.19-.32-.58-.87-.9-.61-.58-.62-1.35-.73-2.28-1-.69-.15-.42-.93-.36-.35-.8-.1-1.11.41L68.5,123l.93-1.39.75-.35.79-.08.63-.78.87-1.61.47-.12,1.22-.78,1.06.43,1.46-.51.51.67.08.39.63.47.83-.43.28,0,.51.12.12.2.63,0,.71-.12.51-.31.67-.82v-.67l-.67-.51-.08-1.17-.63-.24h-.63l-.28-.78v-.31l.28-.31-.08-2.08.59-.35.28,0Z"/><path id="ID-SG" class="cls-2" d="M446.93,174.58l1.63.42.58.26.45.54.39.14.7-.57.72-.21.4.08.59,1.35-.31.58v.33l.17.3,1.09.55,1.2.16.44-.24,1.11-1.14,1.51-.58h0l2.65,1.08,2,.56.64-.33.74.14,1-.05.44.23.51.68,1.08.21.16.33-.11.88.43.18.44.61.55-.1.42,1,.53,0,.17.15-.11.21.13.43h0l-.88,1.22.19.77,1.32.4.35.36.51.2.71,1.16-.15.41-.36.15-1.82-1.82-.61-.36h-.75l.72,1.29-.42,1.26-1.18.47,0,.39.83,1.32,1.66,1.2,2.21,1.22,0,.23.56.71.1.5.46.3,1.57-.14.61.1.1.4-.5.36-.16,1,.66.34.11.36-.33.43.57,1.3.17.13,2.45-.18-.11-.42-.84-.61-.19-.42.21-.11.63,0,.69.49.68,1.57.17,1.07-.13,2.76-1.2,1-.79-.49-1.68-1.47-.3,0-.16.15.21.41,1.16,1,.36.55.08.43-.28.34-.36.15-.3-.41-.56.26-.66-1.32-.76-.5-1.32.76-.76.25-.82-.1-2.74.76-.75-.14-1.33.74-.93.17-.62,1.16-.35,1.41.33,1.08.86.79,0,.32-1.25,1.3-1.68,0-1.53-.7-2.06-.22-.56.27-.41-.1-.2-.41-.46-.3-1.57-.61-.51-.5-.2-.51-.56-.56-.2-.45.25-1.82.17-.14.58-2.14-.09-1.42.41-1.16.51-.25.66-1.42-.06-1.41-.25-.56-1.32-.51-2.39-.35-.45-.35L451.08,194l-.46-.2-.2-.36v-.5l-.51-.1-.61.1-1-1.36-3.13-2.72-.62-.79-.43-.2-.23-.68,0-.82.36-.92,1.61-2.19.7-.35.61-1.54-.05-2.32.15-.55.35-.45,0-1.18-.19-.08.13-.38-.27.15-.24-.18-.12-.79h-.13l-.14.44-.57-.13.13.29.21.05,0,.23-.31,0-.09-.71-.29-.21,0-.21.47.15.47-.74Z"/><path id="ID-SN" class="cls-2" d="M445,252.58l1.11-.05,1.17.37-.33.47-.77.12L443,253l-.43-.28v-.24l.41-.27,1,.31,1.05.09Zm-4.27-4.15,1.12.55.46-.28.15.47-.25.81-1.67.22-.61-.43-.22-.64.15-1.19.42.11.45.38Zm-3.12-10.68-.42.95-.34-1.8.2-1.27-.46-2.48-.08-4.31.39-2.09.19-.34.23,0,.14.3,0,.65.46.83.7,2.68-.45,3.92-.54,3Zm-11-76.1.4.54.34-.33.59-.13.92-.92.33.17,1.47-.13.13.58.84.38h1.8l1.34.58.8-2.46v-.42l.29-.12,1.27,1.45.17.46,1.47,2,1.13,1.08,1.3.67.76.33h.84l.08-.33.46-.13,1,.15.23.21.77.1,4.7,2,1.72.29,1,.58.86-.07.68.12,1.27,1,.62.21.83.06.67,1,.45-.06.64.5,1.26,2.55-.62.17-.27.27-.77,1.49-.41.23-.25.76h0l-1.52.58-1.1,1.14-.44.24-1.2-.15-1.09-.55-.17-.31v-.33l.31-.57-.6-1.35-.39-.08-.72.2-.7.57-.39-.14-.45-.53-.58-.27-1.64-.42h0l.42-.46-.77-1.11-3.68-1-.69-.05-1.64.61-1.83,1.09-3.43,2.49-3,1.84,1.14,3,1.33,1,.58.24.52.88-.15.85-.08,3.5.57,1.33.32,2.23-.13.54-1.16,1.86-.34,1-.18,3.35.77,1.06-.51,3.74.67,1.83.46,3.2-.54,1.82-.9.9-.52.32V213l-.73,2.79,2,3.47,1.37,4.59-.13.2-.83-.28-1-1.6-.36-.17-1.87.52-1.33.68-.83.24-2.91-.58-1.3,1.09-.25.75-.92.61-1.93-.05-.31-.22-.24-.53,0-.28-.33-.38-2.76-1-1.9-2.82-.05-1.1.46-2.67.38-.8,1.2-1.56.87-2.18.08-.77-.38-1-.19-1.4,1.79-3,.49-4.11.05-2.35-.49-3.72-1.06-1.71-1.53-3,.55-1.42.62-.86-.46-1.39h0l-.34-1.87-.5-1.17-.08-.92-.71-.67v-.42l.38-.29.38,0,.21.29.88-.25.25-.21.21-.58.67-.25,1.05,0,0-.38-.59-.67-.5-1.17.29-.7-.1-.62-.26-.33.2-.88v-1l.32-.75.75.29,1-.42h.5l.71-.79.21-.73,1.25-.92.23-.59-.1-.79-.2-.36-.56-.33-.92-.16-.16-.2-.26-.52v-.85l-.3-.33-1.52-.73,0-1.3,1.78-1.28.46-.43.13-.36.72-.1.13-.33-.27-.89,1-.48Z"/><path id="ID-SR" class="cls-2" d="M421.31,141.44l.11.9-.22.56v.95l.25.89.16,1.39.09.25.38-.08,0,.51-.55,1.21.05.55-.19.38-1.55.19-.19.37.55-.19.11.24-.57.33-.65.08v.26l.49.63.32.21.35-.06.38.56.64-.07.57-.46h.36l.76.44.57.55-.08.27-.55.56.29.85,1,1-.08.63.39.13.44.76-.33.4-.11.54.4.27.62-.09.55.24.31-.12,0,2.76.14.34-.36.21.24.89h0l-1,.46.26.9-.13.33-.72.09-.13.36-.47.43-1.77,1.28,0,1.3,1.52.73.29.32v.85l.27.53.16.19.92.17.56.33.2.36.1.78-.23.59-1.25.92-.21.73-.72.79h-.5l-1.05.42-.75-.29-.33.75v1l-.2.88.27.33.1.62-.3.7.5,1.17.59.66,0,.38-1.05,0-.67.25-.21.58-.25.21-.88.25-.21-.29-.38,0-.37.29v.42l.71.67.08.92.51,1.17.34,1.87h0l-2.39-.92-1-.14-1.26,1.1-.5.09-1-.15-1.43.29-1.53.68-.46.59-.19-.09-1.4-3.2-.13-.77,0-4.6.26-.25.67-2.89-.09-.38-.3-.29-.95-.17-.71.33-.19-1.53.38-1.65.36-.7.37-.23.7.56h.71l1.74-1.15,2.39-2.36v-1l-.36-1.06,0-.81.24-1.24,1.18-3.31.45-.61.46-.25.73-.24.58.27.32-.64.27-1.64-.14-.3-.51-.28-.12-.24-.47-1.72,0-.51.43-1.07-.46-2.2-.1-1.27,0-.25.66-.49-.2-.95-.23-.32,0-.29.74-1.49,1.75-1.51.44-2,.53-1.37.28-.54Z"/><path id="ID-SS" class="cls-2" d="M148.23,209.56l.08-.33-.36-.6-.4,0-.62-.29-.36.09.39-.49-.18-.88-.3-.42-.64-.5-.78,0,.71-.62-1.09-1,.26-.52.57-.54v-.57l-.31-.65-.56-.18-1,.36-.55-.3-.34-.61-.4.09-.57-.21h-.73l-.73-.44-.49-.56-1.91-.31v-1.63l-.46-.67-.5-1.37-.4-.05-.29-.24-.94.14-1.26-.06-.21-.12-.26-.51-.4-.16-.61.29-.76-.2-.68-.39-.85-1.08-.89-.51-.17-.4-.4-.4-.67-.2.47-.18.23-.36,1.33-.47.12-1.14.63-.76.49-.31.07-1.45.16,0,.53.3.53.56.36.64.17.05.72-.74.32-.72.33-.09,0-.14.15-.93,0-.83.18-.35-.21-.45-.79-.09-.82.32-.21-.2-.07-.56.16-.11-.56.25-.56-.26-.27.12-.29-.47,0-.34-.25-.11-.9.56-.86,0-.79.56-.25-.25-.63-.1L126,182.83l.2-.5-.23-.15L126,181l-.29-.74-.63-.58-1-.22-1.15.4-.47-.44-.62-.14-.4-.64-.3-1.19-.44-.15-.13-.28-.88-.53-.14-.71-.85-.54-.21-.59h0l.52.15h0l.4-.73.61-.16.2-.2.81-.12.41-.44.08-.73.56-.24.85.52h.29l.2-.2.52.29.57.56.69.16H126l.09.16.6-.44.41-.08.48.2.61-.65v-.32l.2-.2.77-.32.93-.76.28.16.28,0,.45-.36,1-1.77.49-.37-.61-1,.57-.84.72.28,1.9.32.29-.52.2,0,.08.24,1.13.36,1.54-.6-.16-.73-.69-.68.24-.6.2-.29.33-.12.16-.44.28-.24.49.08.32.36.08.77.65.56.16.44.81.44.36.65.53.12.2.36.16,0-.12-.76.2-.21-.2-1.56.08-.41,1.09-.28.69-.48-.56-.48v-1.33l.2-.4-.08-.32.2-.76v-.81l1.09-1,2.18-.81L149,158l.29-.52.72-.36.45.08,1,.52.5-.18h.75l1.08.27,1.35-.32.92-.43,1,.11,1-.27.32-.43-.1-.75.16-.27.32-.16.54-.11,1.28.52h0l.64,1,.16.9-.16.52-.48.38-.33.73v.72l.23.42.23-.09.49-1.19.41.07,1.27,1.08,2.07,1.27,1.37.06.74.67.21.47.31,1.57-.05.47-.26.37-.43.1-.36.63-.32-.06-.59.48L164.64,168l.88.15.27-.15,1-1.47,1.05-.23.44.8,1.13.06.49.38,1.53.39,1.48-.83,2.41.84,3.06.34,1.63,0,.28.6-.46,1.73.27,1.43.16.38.73.64.69.2.81,0,.34.16.21.62-.19,2,.63,1.29.71.62,1,.09.74-.2.3.06.8.34.44.4.15,1-.13,1.25.78,1.57v.4l-.31.42-1.7.88-1.11,1.16L184,187.75l-.34,1.12-.15,1.13.24.9.45.47,1.3.73.41,1-.21.85-.9,1.4-.61,1.28-.22,1.65-.28.36h0l-.3-.55-.51-.27-.21.05-.06.27-.29.14-.76-.08-.18-.14.1-.45-.26-.11,0-.24h-.65V197l.3-.3-.08-.05-.46.05-.24-.13v.27l-.24-.06,0-.29.4-.54-.29-.32v-.24l-.46-.38h.38l-.11-.32-.11-.08-.32.19-.24-.19.05-.45-.35-.27-.19.16-.35-.16.14-.81h-.6l-.18-.26-.78.05-.11-.72-.32-.08-.54.1-.33.24-.29-1.07-.22-.13-.35.45-.11.57-.4.32.27.61-.21.49-.7.64-.68-.24-.54.27-.1.51-.16.08-.22-.14-.27,1.07-.43.43.3.35-.38,0-.3.33-.32,1-.62.43-.37.51-.62,0-.62.24-1.13.57L167,200l-1.48.25-2.21-.11-.22-.05-.4-.51-.67.56-1.21.48-.62.51-.62,0-.51.59-.8.56-.08.38-.27.08-.27.83.3,2.7-.65.65-.27.77.54.33.06.83.67.61.11.35,0,.35-.73.94-.35.11-.4-.38-.3.19h-.4l-.46-.27-.37.08-.14.38-1,.53-.91-.26-.08-.25-.19-.05-.24.22-1.4.16-.51-.38-.16.89-.3.35-.75-.7-.35,0v-.21l.43-.41v-.53l-.38-.49-.43,0,0-.51-.65.05h0Z"/><path id="ID-ST" class="cls-2" d="M491.71,219.55l-1.17-.09-.65-1.23-.08-.8,1.31.15.49.4.17.36Zm-27.91,1.73-1,.06-1.68-2-1-1.56.07-.81.85-2.25.85-.57,1,.21.2.17,1.36,2.6-.11,3.33-.17.61Zm12.09-14.43.6,4,.21.38-.08,1-2.23,1.93-.8,1.74.07.47.47.37.44,1-.24,1.32-.71,1.21-.94.26-1.63-.58-2.47-.2-.47-.18-.19-.93.84-3L469,215l.87-.52.15-.34-.13-1.46-1-2.32.74-1.61.38-.21,1-.05,1.14-.32,1.43-1.12,1.63-.79.64.55Zm8.55,1,0,2.14-.2.85-.61-.66.15-1-.73-1.1-.4.21.16,2.07-.36.25-.61-.25-.15-.25,0-.41.36-.51-.05-.35-.14-.15-.42.22-.54,1.34-.43,1.92-.18,2.77.73.62.37-.08,2.93,2.31,0,.37-1.24,1.59-1.61.7-.34-.09-.57-.45-1.67.76-.45.43-.23.69.68.05.23.33-.21.58-1.27,2-.44.27-2.56-.12-.9-1.51-.61-1.57,2.87-4.36.8-2.15,1.25-5.5L478,207l.35-1.3.87-1.75,2-1.44.46-.13.36.13-.3.52.24.76,1,.56,1,1.4.4,2.1Zm-2.3-11.67.36.06,1.48-.35.72.69.35.72-.09.72-1.57,2.06-.25.13-1.36-.08-.88-.89-.88-1.2-.18-.47,0-.73.94-1,.66-.14.72.52Zm2.16-49,.48,1-.7,1.14.85,1.58.44-.07.41-1,.48-.37.18-.48.59-.66.81-.37,2.51,1.18-.44,2.76-.67.4-.59.85-.52,0-1.18-.55-.26-.59-.67-.66-.52.22-.26.48-.18.59-.11,1.69-.18.29h-.33l-.48.33-.52-.26H483l-.33-.15-.07-.4.18-.26.37,0L484,153l-.3-1.07-.26-2.17-.19-.33-.41.26L481.62,151l-.26,1.07-.74.92,0,.29-1.18,1.07-.41.18-.55-.11-.7-1.62-.55-.22-.18-.33v-.85l.48-1.84,1-1.21.26-.51.33-.4.44,0,.74.44.37-.26,2-.59.63.7.44-.88h.3l.34.41Zm-33.95-41.37.42.06,2-.31.94-.82h.3l.32.22v.42l-.2.29-.59,0-.24.15.21.11.17.7.59.84.92,1,.57.26.66.17,5.74-.78.19.11.58,1.19.32.13.35-.08.87-.72.48,0,1.83.74h0l-2.26.85-.26,0-.52.6h-.38l-.13.65-.3.27-.42-.17-.49-.52-.48-.8-.85.14-.79.61-1.11.29-2.07,1H455.3l-.48.42-1.33,0-.89-.51-.35.41,0,1-.52.1-1-.38-1.06.38-.35.34-.06,1.06-.32.17.26.43.58.32.49.78,1.07.34.69,0,.17,1.46-.29.5h0l-1.37-.41-1.73.44-.62.82-2-.24-1.53.35-.59-.19-.42-.45-1.92-.58-.81-.52-3.39-.19-1.14.65-1.68.58-1.7,1.71-2.12,3.1.35.33-.54.83-.2,2.11-.59.63-.49-.07.07,1.34-.46,1-.05,1.36.37.56.05.85.61,1.46-.27.85-.13,2.21.29.72,1.21,1.8,2.38,2.64.19.46.48.28.36,0,.76-.52.33-.07.58.43.23.56,1.1.11,1.44,2.34-.45,1.51.07.59.28.46.52.22,1,2.16.51.06.82-.43.25-.56.51-.22h.68V151l.2.34.51.18,1.18-.16,2.43.3.43-.29.95-1.24,1.08-2.17,2.22-2.78.39-.12.29-.47.86-.67.66-1.19.62-.35,1.15-.29.21-.93.5-.15.34,0,.33.29-.33,1.48.25.37h.25l1.13.65L461,144l.91.39,1.32-.88.75-.14.69.28.49,0,.51-.51.39-2,1.5-.58,1,.43,2.68-1,3.73.53h1.7l2.61-.26.7-.36-.07-.26-1.44-.51-2-.2-.47-.3,0-.27,1.48-.63,1.52-.21,1.82,0,.5-.15.35-.65h.23l2.66.11,1.54.59,1.69.91.75,1.92-.14,1.24-.79.92-.34,1.94-.5.68-.32.21-1.15-.18-.39-.2-1.26-1.46-.33-.9-1.46-.34-4.31.63-.4.54-.11.72-.49.92-1.3,1.42-1,1.73-1.18.94L471,151.32l-1.12,1.42-3.72,2.08-2.62.34-1,.66-2,.39-.66.5-1,2.39-.85.86-.48.26-1.08.19-1.11-.06-.33-.6-1.27-1.3-1.95-.84-.51.26-.17,1,.87,2.52.38-.3,1.08-.06.91,1,1.53,2.23.85.34.91-.16.78.23,2.11,2.17,2.27,3.87.78,2.54,2,1.65,3.05,2.14,0,.68-.72,1.11,0,.37,1.91,1.71.25.15.55-.25.93.68-1.09,1.29-1-.27-.33.32h0l-.12-.43.11-.2-.17-.15-.53,0-.42-1-.55.1-.43-.61-.43-.18.11-.88-.16-.32-1.08-.21-.51-.69-.43-.22-1.05,0-.74-.14-.65.33-2-.55-2.65-1.08h0l.25-.76.41-.23.77-1.49.27-.27.62-.17-1.26-2.55-.64-.5-.45.06-.67-1-.83-.06-.62-.21-1.27-1-.68-.12-.86.07-1-.58-1.72-.29-4.7-2-.77-.1-.23-.21-1-.15-.46.13-.08.33h-.84l-.76-.33-1.3-.67-1.13-1.08-1.47-2L437,161l-1.27-1.45-.29.12v.42l-.8,2.46-1.34-.58h-1.8l-.84-.38-.13-.58-1.47.13-.33-.17-.92.92-.59.13-.34.33-.4-.54h0l-.24-.89.36-.21-.15-.34,0-2.75-.31.11-.56-.24-.62.09-.4-.27.11-.54.33-.4-.44-.77-.39-.12.08-.63-1-1-.28-.85.55-.56.08-.27-.57-.55-.76-.44h-.36l-.57.46-.63.08-.38-.57-.35.06-.32-.21-.49-.63v-.26l.65-.08.57-.33-.11-.25-.55.2.19-.38,1.55-.19.19-.38-.05-.55.55-1.21,0-.5-.38.08-.09-.25-.15-1.39-.26-.9V143l.22-.56-.11-.9h0L423.2,140l.15-1,.61-.58.31,0,.9,1.93.21,1,.57.9.21,0,.29-.53.07-.52-.3-1.82-.82-1.07-.84-2.81.14-2.57h.16l.15-.75.64-1.65-.33-1.19-1.36.42-.32-.15-.71-.49-1-1.82,1.1.19-.08-.58.86.44.51.41,0,.41.51.34.2.53.71.17.68-.78.39-1,0-1.63-.33-.61-1.34-1.38-.12-.37.42-.27.82.29.91,0,.07-.26-.29-1-.59-.71,0-.23.52-.81,0-.65.44-.68.65-.42.95-.11.55-.4.14-.78-.36-1.65,0-.51.19-.35.74-.62h.75l1.75-1,.28-.5,0-1.51.23-.72.62-.45h.6l.32.21.08.5-.22,1.14.13.4,1.39.93,2.68.49.47-1.17.13-.77.63-1,.7-.73,1.12-.39.82-.87.5-2.27-.18-1.4.2-.77,2.11-.32,2.48.31.84.34,1.74,1.1Z"/><path id="ID-SU" class="cls-2" d="M55.6,131.31l.42,0,.71.82.52.91,0,.51L57,134l.19.23L57,135l.11.46-.21.32-.25.09.36.76-.06.21-.21.11-.38.06.23-.63-.1-.13-.29.25-.33-.15-.23.08-.19.42.21.3-.1.25-.29-.4-.61-.42-1.4-.48.59-.25,0,.23.34,0,.21-.84.33-.23-.06-1.16.21-.84.42-.36.44-.19L56,132l-.52-.72.17,0Zm-.54-4.25.1.23.32-.23v.49l1.11,1.29.11.57-.13.36.27.53,0,.32,1,.72.42.55-.08.91-.38,0-.06.23.27.61-.11.19-.5-1.18-.29-.23-1-1.58-.25-.11v-.4L54.7,129v-.15l-.32-1-1-.47,1-.46.65.11Zm3.91-3,1,.1.51-.13.29.32,1.26-.25,1,1-.13.43.09.13-.41.08-.2-.21-.62-.1-.53.42-.38,0-.42-.18-.87.13-.9-.34h-.89l-.32-.21-.11-.67.79-.54.66-.11ZM40.05,102.6l.33.76,2.46,3.35,1.77.62,2.11,1.87.46,1.18-.7,1.61-.16,4-.28.5-1,1.1-1.93-.49-.34-.41.16-.31L41.57,113l-2.06-2.14-.95-.05-.47-.21-.33-1L37,108.09l-1.64-2.7L33,103.1l.75-.31,1.14.06.49-.13,1.39-1.24,1.11-.23,1.49.54Zm16.86-4,.68.12.3-.51.43.25.39.69-.69.12-1.27-.09L56,98.87l-.19-.49.48-.63.59.25v.55ZM21.16,86.81l-1.73-.16-.31-.19-.3-1-4.1-2.69-3.14-1.12-1-.19-2-1.93-.18-.6.09-.29,1.62-2,1.61.31,2,2.43.57.26,1.24.18,1.95,2.1,2.31,1.59,1.46.6.48.71v.46l.43,1.11-.93.45ZM50.9,90.09l.61-2.79L51,85.68l-.83-.35.06-.71-.41-.56-.18-1,.24-1.41.62-.21,0-.26-.5-.5L49.8,80l.06-.38.33-.5L50,78.86l0-.26L49,78.48l-.59-1.06-.92-.24V76.12l-.27-.88,0-.53-.21-.26.18-.12.62.06.09-1-.62-.65L47.28,72l-.5-.5-.59-.12-.09-.18,2.37-.65.24-.79-.38-.71-.27.12-.65-.44,0-.44-.27-.56.33-.53-.56-.41-.21-.88-.74-.35,0-.74-.27-.18v-.32l-.47-.5L44.89,63l.44-.62,1.48-1.18.12-.35-.41-.74.09-.32.18,0,.56.38.15-.27-.06-.38,1.21-.65.24-1.33.21-.29,0-1,.47-.68-.15-.47.41-.24,0-.38-.3-.53.09-.21.38.09.56-.12.27-.12.06-.32.77-.21.8.15.4-.14h0l.1,2.71.77,1,1.19,0,1.49.64,1.11.66.82,1.3,1.74.44.35.59-.1.53.23.83,2.14,1.41,2.23.73,1.77,1,4,2.5,1.18,1.06,1.21.47.92.65.72,1.28.36.35.52.31,1.36.41,1.86,1,2.36,2.36,1.38,1.1.13.33.1,2.19-.14.6-.58.79,0,.44,1.14,1.28-.27.26.51-.15-.31-.75.24-.46-.53-.4-.38,0,0-.14.94-.63.4.07.71.77-.07,1.39.73,1.7.13,0-.4-1.63v-.73l.3-.53.59-.35.62,0,.72.9.65,1.27.54.52.22.56-.4,1.27.12,2L89,88.64l.16.94-.51,1.72-.24,3-.47,1.25v.39l.28.31,1.89.35.24.78-.32.27,0,.43.59.12.08.31-.12.39.16.31-.08.47-.43.71-.08.39.24.24-.12.47-.83.71h-.79l0,.39-.28.16-.59-.12-.47.12v.35l-3,.16-.39.27,0,.39.24.24.24,0,.51.94.2,1.59.28.51.59.43.08.31-.63.08-.55.31,0,.43.39.16.35,1-.16.63-.24.27-.75,0v.23l.43.47.43,0-.12.43.12.71-.28.2.51.74L86,114l-2.13-.71-.28-.35-1.3-.47-.32-.71-.67.12-.39-.35-.28,0-.59.35.08,2.08-.28.31v.31l.28.78h.63l.63.24.08,1.17.67.51v.67l-.67.82-.51.31-.71.12-.63,0-.12-.2-.51-.12-.28,0-.83.43-.63-.47-.08-.39-.51-.67-1.46.51-1.06-.43-1.22.78-.47.12-.87,1.61-.63.78-.79.08-.75.35-.93,1.39-.2-.06-.26-.21.32-.15v-.87l-.79-.48L68,120,67.37,117l-1.17-3.28L65,111l-2.17-6.42-1.33-3-.83-1.06v-.33h.19l.45.48.19.08.19-.16.85-1.33,0-.83L61.62,97l-.76-.62-.26,0-.23.27.5.15.21.68-.41,0-.74-.47-2-2.76-.56-.51-1.45-.92L52.45,91.2,50.9,90.09Z"/><path id="ID-YO" class="cls-2" d="M270.33,268.51l-2-.09-5.85-2.13L262,266l-.25-.48-2-.62-2.48-1.28L256,263.1h0l.58,0,.31-1.28.4-.24.2-.42.26-.1.34-.51.12-.88-.32-.28.18-.43.61-.16L260,259l.29-.12.2.17,0,.59.26.14.57-.77,2.39-1.88.81,3.89.32.06.43.4.36-.23.23.09.21.34,1.1-.23.14.14.24-.23.19.33.41,0,.17-.22.32.13.37.46.24-.27.29.17-.05.89-.29.84,0,1.1-.23.55.57,1.61-.05.75.23.18.32-.38h.22L270,268l.08.11.18-.18.12.05Z"/><path id="TL" class="cls-2" d="M506.32,285.46l0,.31-.19.24,0,.59-.2.43.12.56-.3.15-.14.43-.49.07-.31.4-.17,0-.11.3.12.25-.55.68.22.45-.23.5-1.21.28.14-.86-.25-.61-.83-.81-.21,0-.7.42-.2.48-.41.11-.26-.32-.46,0-.88-1.19h0l1.84-.67.56-.7,1.86-.7,3.25-.75Zm48-12.17-2.76,2.21-1.31,1.34-3.94,1.3-2.31.34-1.29.62-.72.7-.34.84-.8.89-2.6.43-3,.26-3.63,2.38-1.7.07-1.08.28-6.72,2.18-1.12.66-2,2-1.42.21-.69.46h0l-.16-1.19-.48-.56,0-.58-1-.67-.26-1.08,0-.39.28-.57,1,0,.72.56,0-.14.64-.38.69-.08-.15-.75.26-.89,0-.85-.61-.51-.26-.05-.41-.45-.28.63-.32.34L516,283l-.67.52h-.45l-.51-.25-.23-.36v-.52l.3-.63-.2-.08h0l.55-.4,2.12-3.05.28-1.37.62-.8,1.46-.43,3.37-.66,4.92-.72,2.35-.85,1.62.11.84.22.61.34,1,.07,2.69-.44.93-.38,1.23-.85.93-.06,1.61.48.64.54.39,0,3.6-1.08,2.2-1.11,1.84-.62,3.35.15,1.81,1.11,0,.64-.88.75Z"/><path id="MY-12" class="cls-3" d="M384.46,12.92l-.36,0L383,12.7l-.27-.31.13-.24,1-.08.68-.27.12-.23-.1-.21-.61-.08-.06-.24.18-.18,1-.25.42.3.4.67,0,.47-.21.26Zm-11.24.77.28.13.42-.06.66-.28,3.21-4,.11-.31L377.47,8l0-.42.65-.77.36-.24,1-.15.57.19,1.23.78.06,1-.13.46.14,1.62.6,2.21L385,14.43l1.59,0,1.55.4.49.4.83,1.18.26.63-.29,2.25-.22.13-.66-.1-.51.2-.51.4-.21.48,0,.25,1.05,1.54.21,1.84-.78.73-2.2.76,4.83-.33,1.81-.65L394,22.78l.35-.09.72.72,1.32,2.69-.77.93-.69.12L393.06,27l-.4.28.17.74.65,1.21,2.94-.08.53-1.68.35-.29,1.42-.41,2,.35,1.75.85,1.8,1.2,1.21.88.75.8,4.2,2.79,2.34.44.56-.15.5-.39,1-.13.85.69.64,1-.06,2.09-.84,1.29-.91.63-1.75.73-2.71.73L406.39,42l-2.63-.27L402,41l-.58-.54-1-.09-2.54,1.28L396.68,43l-.14.6,2.59,3,2.33,1.51.22-.31.18,0,.77.35,0,.48-.34.46.73.65.6-.43.88.07.87,1.44-.26.39-1.39,1.11-2.49.05-3.82.71-1,.3-2.23,1.14-1.56-.38-.74-.71L389,51.83l-1.1.36.39,1.49-.88,1.16-.15.5h0l-.24-.17-.89.26-1.21-.34-.24-.15-.4-.86-3-2.15-.53.21-.09.19-.64.16-.59-.11-.65.17-1.11-.15-.34.39-.28-.3-.65-.06-.29-.23-.73-.18-.53.41-.69.2-.49-.28-.26.11L373,52l-.41-.25-.26.5-.28.16-.31.1-.53-.16-.77.24-.25-.61-.38-.12-.41-.45-.54.67.05.62-.47.08L368,52.6l-.23.54-.55.14-.19-.63-1.17-1-1.52.35-.3-.18-1.41-.21-.15.11-.13.64-.85.33-.39.76-.2.13-.65-.5-.11-.49-.27-.2-1.51-.3-.33-.57-.53.19-.12,1,.14.42-.72.6-.13.57-.41.11-.14-.33-.4-.06L355,55l-.37,0-.33.67,0,.93h0v0h0l-.34-.07-.55-.43-.31-.74.43-1.1v-5.7l-.62-3.49L352.36,41l-1.71-.26h0l.88-.36.5-.46.28-1.91-.26-.4-.51,0-.77-.35-2.17-1.53.36-1.58,2.56-2,4.05,0,.95-.24.54-.52.8-1.4.41-1.77,2.29-1.61,0-1,.64-1.34.34-2.59,3.78-4.07,3-2.25.11-.88,2.36-2.71V10.43L371,9.16l1-2.1.66-.87.21-.09,1.14,1,.12.28.34,2.52-.14.8-.72.93-.5,1-.07.73.12.3ZM381.86,1l-.11,1.4-.45,1-1.75.18-.89.54-.33.56h-.22l-.25-1.14L378,1.78l.14-.21L379.47.7l1.34-.32.8.15ZM374.8,2.65l-.31.66-.08-.08.46-1.49L377,.38l.29.77v.72l-1,.43Z"/><path id="MY-13" class="cls-3" d="M280.29,86.23l-.75.29-.3-.21L278.43,85l.14-.81-.32-4.06.18-.59.44-.22.44.35.47,1.06-.08,3.49.59,2Zm70.35-45.54,1.71.26.49,4.11.62,3.49v5.7l-.43,1.1.31.74.55.43.34.07h0v.13h0l-.67,2.08-.45.41-.85.23.13.31.78.56,0,.18,0,.56-.52,1-.14.71-.05,1.55.16.86.38.47.13,1.1.58,1-.4.58-.4-.63-.34,0L351.94,69l-.42,2.81.05.18.71.52v.2l-.81.67-.13.25v.84l-.18.34-1,.14-.81.77-1.23.09,0-.41-.61-.65-.34.83-1.59,1.06-.25,1.06-1,.77,0,.18.51.13L345,79l-.18.34v.43l-.6.52v.38l.23.14v.49l-.09.41-.31.38.31.47,1-.31.67.79.11.34.47.34-.07.31-.6.5-.78,0-.58.18-.45.41-.2.59h-.67l-.51.59-.43.23-.67-.11-.31.63.33.43,0,.23-.78.49-1.84.2-.34,1.31,0,.82.16.29.35.19-.16,1,.2.45.76-.34.51.25,0,.22-.69.52-.05.23.4.81-.36.34-.67.11-.45.64-.54-.25-.56.16.07.27-.49.66.13.13.11,1.19-.13,1-.38.31-.52.92-.8.47-.12.75.18.3-.49.81h0l-.21.42-.39.12L332,101l-.58.54-1.58.66-.7.09-.24.45h0l-.34.14h0l-.2-.28-1-.65-3,.32-.4.45-1.92.79-.07.17.13.2-.28.84-1.9.77-.38.45-.35.22h-.3l-.32-.1-.75-1.34-.67-.3-.82,0-.57.22-.33.3-.4,0-.3-.37-.6-.37-.17-.35-.72-.5-.77-.2-1.6.15-.75-.22-.38-.67-.37,0-1.35.45-.75-.07.15-.45.3-.3.5-.17.5-1,.17,0-.13-.4-.52-.3-.63-.12-.92.07-.82-.22-.2,0-.35.47-.57.3-.35,0-.55-.4-1.65.12-2.9-.37-1,.37-.08.3-.55.27-1.57.35-1.27.79h-.42l-.5.55.42.65-.05.65-.85.84-.15,1.49-.25.6,0,.65-3.22.22-1.35,1.39-.32.77-1.7-.35-.58.17-1-.52-.27,0-1.13.82-.52.07-.1.52-.23,0-.7-1.17-.77-.12-.7.3-.5,0-.5-.32-1.75-.57-.32-.3-1.95.57-3.85.5-.27.6-.63.55-.72.12-.95.55-.77.25-.38.32-.45,0-.45-.45-.4.67-.55.12-.73-.07-1.2-.42-.35-.27-.9-1.37-1-.25h-1l-.32-1-.42-.72-.48-.4-.15-.52-.45-.67-.73-.15-.6.07-.43-.35-.35-.87-1.49-.74-.17-1.39-.25-.3-.5-.2-1.27-.05-.83-1.29-.35-.15-1.82-1.81-.3-.65.42-2.14-.15-.35-1.2-.3-.4-.62-.45-.32-.25-.59,0-.47.6-.07.3-.75.38-.22.5-1.38h0l.15,1.18-.07,1.14.34.66.67.8,3.27,2.23.49.54.93.14,4.69-.4,1.11-1.52.23-.13.2.07,2.34,2.65.05.33,3.85,1.16.53.29.12.32-.1.33-1,.89.2.1.81-.14.49-.46.21-1.43.82-.09,2.67,1.23,1.5,1.57,1.6.71,2.84.53,1-.22-1.58-1.15-.78,0-.93.34-.49-.06L274.16,102l-.78-1.23-.22-.67.5-1.62.61-.28,1.88-4.57.56-2,.59-.83.27-.15,1.21.31.42-.23.37-.47,0-.2-.29-.08-2.82.38-.33-.08.18-2,.49-2.35.25-.41.33-.12,1.23.72.91.83.45-.29,1-.21-.82-1.93.58-3.3.2-.38,3.81-2.63,2.68-.44,2.19-.12,2.47-.43,13.35-3.37,1.53-.48,1-.54.55-.52.7-1.07,3.33-4L315,63.62l1.78-2,2.63-2.14,1.14-1.11,3.3-4.26.66-1.33.52-2-.05-.78-.5-1.46.07-.22L325,48l2,.12h0l1.91.72,1.54,2.08.25,1.72,1.11,1.23L334.4,56l1.23,1.41.06.37.25.25.55-.06,1.29-.73L339,55.89l1-3.49-.06-1.16-.31-.31-1-4.84.06-.43,1.11-1.1,1.6-.18.49-.18.37-.31.45-.85h0l.22,1.31h0l-.24.71.18,2.15.43,1.23.74,3.31,2,.73,2.15.49.31-.12-.12-.92-1.05-.8-.25-.37L347,50V48.61l.18-.49-.06-.74-1-3.06-1.21-1.58h0l1.25-.91,1.14.56.72.55.5-.1.62-.45,1.48-1.7Z"/><path id="BN" class="cls-3" d="M404.57,47.29l-.48.67h-.67l-3.11-1.24,2.23-.3Zm-59.64-4.6,1.21,1.58,1,3.06.06.74-.18.49.12,2.15.25.37,1.05.8.12.92-.31.12-2.15-.49-2-.73-.74-3.31-.43-1.23L342.7,45l.24-.71h0l.29.24.2-.08,1.09-.8.41-1Zm-2.74,0-.13.26.63-.1,0,.14h0l-.45.85-.37.31-.49.18-1.6.18-1.11,1.1-.06.43,1,4.84.31.31.06,1.16-1,3.49-1.23,1.35-1.29.73-.55.06-.25-.25-.06-.36L334.4,56l-2.52-2.14-1.11-1.23-.25-1.72L329,48.8l-1.91-.72h1.1l.4.19,1.69-.24,3.8-1.65.43-.28,2.1-2.16,1.22-.92,3.06-1.91,2.19-.88.5-.1.5.1.1.15Z"/><line class="cls-4" x1="31.87" y1="20.87" x2="31.87" y2="55.6"/><path class="cls-5" d="M54.11,29.75H52.84L51.61,27H45.89l-1.24,2.78H43.43l4.79-10.58h1.11Zm-5.35-9.18-2.4,5.35h4.78Z"/><path class="cls-5" d="M63.72,28.84a4.83,4.83,0,0,1-.95.58,5.47,5.47,0,0,1-1.1.37,5.76,5.76,0,0,1-1.3.14,5.17,5.17,0,0,1-3.77-1.57,5.28,5.28,0,0,1-1.1-1.72,5.76,5.76,0,0,1-.4-2.13,5.7,5.7,0,0,1,.4-2.11,5.44,5.44,0,0,1,1.1-1.73,5.15,5.15,0,0,1,1.68-1.18,5.33,5.33,0,0,1,2.13-.42,6.39,6.39,0,0,1,1.3.12,5,5,0,0,1,1.07.34,4.86,4.86,0,0,1,.92.52,8.58,8.58,0,0,1,.81.68l-.81.87a6.51,6.51,0,0,0-1.45-1,4.24,4.24,0,0,0-3.46-.08,3.85,3.85,0,0,0-1.29.92,4.3,4.3,0,0,0-.86,1.37,4.75,4.75,0,0,0-.31,1.7,4.81,4.81,0,0,0,.31,1.71,4.24,4.24,0,0,0,.86,1.38,3.85,3.85,0,0,0,1.29.92,3.75,3.75,0,0,0,1.61.34,4.12,4.12,0,0,0,1.86-.39,6.63,6.63,0,0,0,1.53-1.12l.78.76A6.71,6.71,0,0,1,63.72,28.84Z"/><path class="cls-5" d="M74.23,20.33H67.82v3.58h5.73V25H67.82v3.68H74.3v1.08H66.64V19.25h7.59Z"/><path class="cls-5" d="M77.87,25v4.73H76.69V19.25h1.18v4.66h6.06V19.25h1.19v10.5H83.93V25Z"/><path class="cls-5" d="M99.87,29.46a6,6,0,0,1-2.41.47,5.56,5.56,0,0,1-2.22-.42,4.9,4.9,0,0,1-1.68-1.16,5,5,0,0,1-1.07-1.72,6.17,6.17,0,0,1-.37-2.12,5.6,5.6,0,0,1,.39-2.07,5.34,5.34,0,0,1,1.07-1.74,5.08,5.08,0,0,1,3.81-1.63,7.55,7.55,0,0,1,1.21.09,5.45,5.45,0,0,1,1,.27,5.16,5.16,0,0,1,.88.44,7.48,7.48,0,0,1,.8.59l-.76.9a4.77,4.77,0,0,0-.63-.48,4.38,4.38,0,0,0-.71-.38,5.15,5.15,0,0,0-.84-.25,5.38,5.38,0,0,0-1-.09,3.71,3.71,0,0,0-1.6.35,3.9,3.9,0,0,0-1.26.93,4.34,4.34,0,0,0-.83,1.38,4.62,4.62,0,0,0-.3,1.67,5,5,0,0,0,.3,1.75,4,4,0,0,0,.83,1.39,3.79,3.79,0,0,0,1.3.92,4.34,4.34,0,0,0,1.73.33,4.53,4.53,0,0,0,1.69-.31,4.88,4.88,0,0,0,1.34-.75V25.2h-3.2V24.15h4.34v4.18A6.82,6.82,0,0,1,99.87,29.46Z"/><path class="cls-5" d="M114.13,29.75h-1.28L111.62,27h-5.71l-1.25,2.78h-1.21l4.78-10.58h1.11Zm-5.36-9.18-2.4,5.35h4.79Z"/><path class="cls-5" d="M119,29.75h-1.19V25.59l-4.36-6.34h1.44l3.53,5.25L122,19.25h1.38L119,25.58Z"/><path class="cls-5" d="M134.24,26.56a5.38,5.38,0,0,1-8.85,1.76,5.16,5.16,0,0,1-1.08-1.73,5.72,5.72,0,0,1,0-4.15,5.42,5.42,0,0,1,1.1-1.74,5.27,5.27,0,0,1,1.69-1.19,5.73,5.73,0,0,1,4.38,0,5.31,5.31,0,0,1,1.68,1.18,5.19,5.19,0,0,1,1.09,1.73,5.51,5.51,0,0,1,.38,2.07A5.57,5.57,0,0,1,134.24,26.56Zm-1.14-3.74a4.26,4.26,0,0,0-.87-1.38,4.11,4.11,0,0,0-1.31-.93,4,4,0,0,0-1.66-.35,4.06,4.06,0,0,0-1.65.34,3.93,3.93,0,0,0-1.3.92,4.39,4.39,0,0,0-.85,1.38,4.64,4.64,0,0,0-.31,1.68,4.79,4.79,0,0,0,.31,1.7,4.24,4.24,0,0,0,.86,1.38,4.15,4.15,0,0,0,1.32.93,3.9,3.9,0,0,0,1.65.34,3.94,3.94,0,0,0,1.66-.34,3.79,3.79,0,0,0,1.3-.92,4.34,4.34,0,0,0,.85-1.37,4.91,4.91,0,0,0,0-3.38Z"/></svg>